<svg width="16" height="17" viewBox="0 0 16 17" fill="none" xmlns="http://www.w3.org/2000/svg">
<g id="activity-community-group-svgrepo-com 1" clip-path="url(#clip0_16_116)">
<path id="Vector" d="M3 13.9661C2.99956 13.762 2.9353 13.5631 2.81622 13.3973C2.69713 13.2315 2.52918 13.1071 2.33588 13.0415C2.50718 12.9176 2.63483 12.7427 2.70051 12.5418C2.76619 12.3409 2.76651 12.1243 2.70142 11.9232C2.63634 11.7221 2.5092 11.5468 2.33826 11.4224C2.16733 11.2981 1.96138 11.2311 1.75 11.2311C1.53862 11.2311 1.33268 11.2981 1.16174 11.4224C0.990803 11.5468 0.863665 11.7221 0.798582 11.9232C0.733499 12.1243 0.733818 12.3409 0.799494 12.5418C0.86517 12.7427 0.992824 12.9176 1.16413 13.0415C0.970822 13.1071 0.802871 13.2315 0.683784 13.3973C0.564698 13.5631 0.500438 13.762 0.5 13.9661V15.7344H3V13.9661Z" fill="black"/>
<path id="Vector_2" d="M4.5 13.9661V15.7344H7V13.9661C6.99956 13.762 6.9353 13.5631 6.81622 13.3973C6.69713 13.2315 6.52918 13.1071 6.33588 13.0415C6.50718 12.9176 6.63484 12.7427 6.70051 12.5418C6.76619 12.3409 6.76651 12.1243 6.70142 11.9232C6.63634 11.7221 6.5092 11.5468 6.33826 11.4224C6.16733 11.2981 5.96138 11.2311 5.75 11.2311C5.53862 11.2311 5.33268 11.2981 5.16174 11.4224C4.9908 11.5468 4.86367 11.7221 4.79858 11.9232C4.7335 12.1243 4.73382 12.3409 4.79949 12.5418C4.86517 12.7427 4.99282 12.9176 5.16413 13.0415C4.97082 13.1071 4.80287 13.2315 4.68378 13.3973C4.5647 13.5631 4.50044 13.762 4.5 13.9661Z" fill="black"/>
<path id="Vector_3" d="M11.5 13.9661C11.4996 13.762 11.4353 13.5631 11.3162 13.3973C11.1971 13.2315 11.0292 13.1071 10.8359 13.0415C11.0072 12.9176 11.1348 12.7427 11.2005 12.5418C11.2662 12.3409 11.2665 12.1243 11.2014 11.9232C11.1363 11.7221 11.0092 11.5468 10.8383 11.4224C10.6673 11.2981 10.4614 11.2311 10.25 11.2311C10.0386 11.2311 9.83268 11.2981 9.66174 11.4224C9.4908 11.5468 9.36367 11.7221 9.29858 11.9232C9.2335 12.1243 9.23382 12.3409 9.29949 12.5418C9.36517 12.7427 9.49282 12.9176 9.66413 13.0415C9.47082 13.1071 9.30287 13.2315 9.18378 13.3973C9.0647 13.5631 9.00044 13.762 9 13.9661V15.7344H11.5V13.9661Z" fill="black"/>
<path id="Vector_4" d="M15.5 13.9661C15.4996 13.762 15.4353 13.5631 15.3162 13.3973C15.1971 13.2315 15.0292 13.1071 14.8359 13.0415C15.0072 12.9176 15.1348 12.7427 15.2005 12.5418C15.2662 12.3409 15.2665 12.1243 15.2014 11.9232C15.1363 11.7221 15.0092 11.5468 14.8383 11.4224C14.6673 11.2981 14.4614 11.2311 14.25 11.2311C14.0386 11.2311 13.8327 11.2981 13.6617 11.4224C13.4908 11.5468 13.3637 11.7221 13.2986 11.9232C13.2335 12.1243 13.2338 12.3409 13.2995 12.5418C13.3652 12.7427 13.4928 12.9176 13.6641 13.0415C13.4708 13.1071 13.3029 13.2315 13.1838 13.3973C13.0647 13.5631 13.0004 13.762 13 13.9661V15.7344H15.5V13.9661Z" fill="black"/>
<path id="Vector_5" d="M12.25 7.85938C12.1506 7.85927 12.0553 7.81972 11.985 7.74942C11.9147 7.67912 11.8751 7.5838 11.875 7.48438H11.625C11.625 7.65014 11.6908 7.80911 11.8081 7.92632C11.9253 8.04353 12.0842 8.10938 12.25 8.10938C12.4158 8.10938 12.5747 8.04353 12.6919 7.92632C12.8092 7.80911 12.875 7.65014 12.875 7.48438H12.625C12.6249 7.5838 12.5853 7.67912 12.515 7.74942C12.4447 7.81972 12.3494 7.85927 12.25 7.85938Z" fill="black"/>
<path id="Vector_6" d="M11.625 6.73438C11.7631 6.73438 11.875 6.62245 11.875 6.48438C11.875 6.3463 11.7631 6.23438 11.625 6.23438C11.4869 6.23438 11.375 6.3463 11.375 6.48438C11.375 6.62245 11.4869 6.73438 11.625 6.73438Z" fill="black"/>
<path id="Vector_7" d="M8.5 4.23438L7.75 3.23438L7 4.23438L7.75 5.23438L8.5 4.23438Z" fill="black"/>
<path id="Vector_8" d="M15.25 7.08524V3.38351C15.25 3.03562 15.1815 2.69114 15.0483 2.36973C14.9152 2.04832 14.7201 1.75628 14.4741 1.51029C14.2281 1.26429 13.9361 1.06916 13.6146 0.936028C13.2932 0.802896 12.9487 0.734375 12.6009 0.734375H3.39914C3.05125 0.734375 2.70677 0.802896 2.38536 0.936028C2.06395 1.06916 1.77191 1.26429 1.52591 1.51029C1.27992 1.75628 1.08478 2.04832 0.951653 2.36973C0.818521 2.69114 0.75 3.03562 0.75 3.38351V7.08524C0.750001 7.78783 1.02911 8.46165 1.52592 8.95846C2.02273 9.45527 2.69654 9.73437 3.39914 9.73438H12.6009C13.3035 9.73437 13.9773 9.45527 14.4741 8.95846C14.9709 8.46165 15.25 7.78783 15.25 7.08524ZM10.9761 1.95248C11.1234 1.81246 11.3189 1.73437 11.5221 1.73437C11.7253 1.73437 11.9207 1.81246 12.068 1.95248L12.25 2.12802L12.432 1.95248C12.5793 1.81246 12.7747 1.73437 12.9779 1.73437C13.1811 1.73437 13.3766 1.81246 13.5239 1.95248C13.5953 2.02033 13.6522 2.102 13.6911 2.19253C13.73 2.28306 13.75 2.38055 13.75 2.47907C13.75 2.5776 13.73 2.67509 13.6911 2.76562C13.6522 2.85615 13.5953 2.93782 13.5239 3.00566L12.25 4.23438L10.9761 3.00566C10.9047 2.93782 10.8478 2.85615 10.8089 2.76562C10.77 2.67509 10.75 2.5776 10.75 2.47907C10.75 2.38055 10.77 2.28306 10.8089 2.19253C10.8478 2.102 10.9047 2.02033 10.9761 1.95248ZM3.3692 1.74099C3.36562 1.84696 3.36377 1.94811 3.36377 1.98804C3.36582 2.41269 3.53117 2.82026 3.82554 3.12632C4.11992 3.43238 4.52076 3.61345 4.945 3.63202C4.86298 3.92987 4.69093 4.19509 4.45239 4.3914C4.21385 4.58771 3.92048 4.70552 3.61242 4.7287C3.64706 4.59683 3.66563 4.46127 3.66772 4.32495C3.66721 3.90151 3.50994 3.49326 3.22624 3.17891C2.94254 2.86456 2.5525 2.66638 2.13133 2.62259C2.2404 2.37868 2.41267 2.16834 2.6303 2.01335C2.84794 1.85835 3.10304 1.76432 3.3692 1.74099ZM2.04778 2.86481C2.41881 2.88883 2.76682 3.05307 3.02122 3.32422C3.27563 3.59538 3.41738 3.95314 3.41773 4.32495C3.41599 4.46125 3.39501 4.59663 3.35541 4.72707C3.13993 4.70701 2.93138 4.64037 2.7442 4.53177C2.55701 4.42317 2.39565 4.2752 2.27129 4.09809C2.14693 3.92098 2.06253 3.71897 2.02394 3.50603C1.98535 3.29309 1.99348 3.0743 2.04778 2.86481ZM5 7.48438H4.25L4.5 8.73438L3 7.48438H2V5.73438H5V7.48438ZM4.9905 3.39923L4.99073 3.38476C4.62428 3.37787 4.27506 3.22788 4.01775 2.96687C3.76044 2.70587 3.61545 2.35455 3.61378 1.98804C3.61378 1.95239 3.6155 1.84715 3.61901 1.74039C3.81934 1.75569 4.01453 1.81121 4.19292 1.90365C4.3713 1.99609 4.52923 2.12353 4.65725 2.27838C4.78527 2.43322 4.88076 2.61228 4.93802 2.80486C4.99528 2.99745 5.01313 3.19959 4.9905 3.39923ZM9.5 6.48438H6V1.98438H9.5V6.48438ZM10.5 6.98438C10.5 6.63826 10.6026 6.29991 10.7949 6.01213C10.9872 5.72434 11.2605 5.50004 11.5803 5.36759C11.9001 5.23513 12.2519 5.20048 12.5914 5.268C12.9309 5.33552 13.2427 5.5022 13.4874 5.74694C13.7322 5.99168 13.8989 6.3035 13.9664 6.64297C14.0339 6.98243 13.9992 7.3343 13.8668 7.65407C13.7343 7.97384 13.51 8.24715 13.2222 8.43945C12.9345 8.63174 12.5961 8.73438 12.25 8.73438C11.7859 8.73438 11.3408 8.55 11.0126 8.22181C10.6844 7.89362 10.5 7.4485 10.5 6.98438Z" fill="black"/>
<path id="Vector_9" d="M12.875 6.73438C13.0131 6.73438 13.125 6.62245 13.125 6.48438C13.125 6.3463 13.0131 6.23438 12.875 6.23438C12.7369 6.23438 12.625 6.3463 12.625 6.48438C12.625 6.62245 12.7369 6.73438 12.875 6.73438Z" fill="black"/>
</g>
<defs>
<clipPath id="clip0_16_116">
<rect width="16" height="16" fill="white" transform="translate(0 0.234375)"/>
</clipPath>
</defs>
</svg>
