<svg width="16" height="17" viewBox="0 0 16 17" fill="none" xmlns="http://www.w3.org/2000/svg">
<g id="business-meeting-group-on-circular-table-svgrepo-com 1" clip-path="url(#clip0_16_113)">
<g id="Group">
<path id="Vector" d="M8.00782 12.6387C4.70742 12.6387 1.37578 11.9849 0.222097 10.7268V13.6504H7.32812V14.9293H5.66838V16.2344H10.27V14.9293H8.61026V13.6504H15.7779V10.7407C14.6121 11.9896 11.2952 12.6387 8.00782 12.6387ZM5.14538 7.00325C5.21788 6.57139 5.31118 6.13649 5.4683 5.70745C5.62584 5.27537 5.86196 4.76345 6.24392 4.40211C6.4922 4.08875 7.08984 3.81965 7.8685 3.79337L7.50564 6.84003C7.1723 6.84677 6.84284 6.85827 6.52168 6.87759C6.5321 6.65862 6.54208 6.44855 6.5512 6.26148C6.48436 6.4646 6.43444 6.67423 6.38976 6.88735C5.9622 6.91559 5.54596 6.95379 5.14538 7.00325ZM6.33334 1.92989C6.33334 0.993275 7.09114 0.234375 8.02648 0.234375C8.96096 0.234375 9.71834 0.993275 9.71834 1.92989C9.71834 2.86653 8.96096 3.62499 8.02648 3.62499C7.09114 3.62499 6.33334 2.86653 6.33334 1.92989ZM3.63708 4.5087C4.07284 4.82443 4.29506 5.33117 4.42398 5.68469C4.44742 5.74935 4.4613 5.81857 4.48258 5.88413C4.36234 6.31208 4.28508 6.73569 4.22302 7.14216C4.08414 7.16645 3.9461 7.19141 3.812 7.21833C3.74776 6.81989 3.66834 6.40865 3.56982 6.11763C3.5963 6.45813 3.62538 6.85809 3.65098 7.25239C3.37972 7.30947 3.11712 7.37067 2.86886 7.43839L2.5594 4.18253C2.77426 4.19727 2.98302 4.23158 3.16488 4.28865C3.32416 4.33096 3.48518 4.39887 3.63708 4.5087ZM9.60158 4.21679C10.1537 4.6172 10.4358 5.25955 10.599 5.70791C10.7565 6.13911 10.8503 6.57617 10.9228 7.01065C10.5222 6.95987 10.1059 6.92035 9.67796 6.89129C9.63368 6.67862 9.58336 6.46942 9.51738 6.26672C9.53214 6.45941 9.5482 6.66753 9.56382 6.88281C9.22438 6.86133 8.87718 6.84766 8.52428 6.84028L8.23566 3.80317C8.50824 3.82186 8.77256 3.86545 9.00346 3.93751C9.20488 3.99133 9.40932 4.07748 9.60158 4.21679ZM13.7305 4.17646L14.1585 7.76629C14.7809 8.00717 15.2831 8.28711 15.6329 8.59787C15.7792 8.25131 15.8894 7.88304 15.9515 7.45551C16.1134 6.34094 15.8669 5.39649 15.2579 4.79624C15.0383 4.57943 14.8204 4.44641 14.6042 4.36111C14.3738 4.25673 14.0739 4.18815 13.7305 4.17646ZM15.0149 7.31901C14.981 7.55425 14.9289 7.76561 14.8638 7.96571V7.96528C14.8621 7.94183 14.856 7.91971 14.8517 7.89691C14.8135 7.00196 14.7705 6.12784 14.7471 5.6582C15.1077 6.17752 15.0756 6.90321 15.0149 7.31901ZM12.2709 2.70421C12.2709 1.96505 12.8686 1.36654 13.606 1.36654C14.3439 1.36654 14.9419 1.96505 14.9419 2.70421C14.9419 3.44335 14.3439 4.04168 13.606 4.04168C12.8686 4.04168 12.2709 3.44335 12.2709 2.70421ZM11.8451 7.15127C11.777 6.70855 11.6902 6.24286 11.55 5.77388C11.5599 5.74481 11.5656 5.71377 11.576 5.68469C11.7049 5.33117 11.9272 4.82443 12.3629 4.5087C12.5149 4.39887 12.6759 4.33096 12.8351 4.28863C13.017 4.23155 13.2258 4.19727 13.4406 4.18251L13.1316 7.43447C12.8829 7.3672 12.6207 7.30599 12.3495 7.24914C12.3747 6.8559 12.4037 6.45703 12.4302 6.11761C12.3126 6.46505 12.2306 6.83312 12.1689 7.21094C12.063 7.18988 11.954 7.17059 11.8451 7.15127ZM1.05806 2.70421C1.05806 1.96505 1.65616 1.36654 2.39402 1.36654C3.13144 1.36654 3.7291 1.96505 3.7291 2.70421C3.7291 3.44335 3.13144 4.04168 2.39402 4.04168C1.65618 4.04168 1.05806 3.44335 1.05806 2.70421ZM0.371417 8.60895C0.718637 8.29645 1.21822 8.01455 1.84106 7.77218L2.26944 4.17647C1.92612 4.18819 1.6262 4.25677 1.39572 4.36114C1.17956 4.44643 0.961677 4.57945 0.742497 4.79625C0.133117 5.39647 -0.113383 6.34094 0.0484769 7.45551C0.110997 7.88737 0.222537 8.25933 0.371417 8.60895ZM1.25336 5.6582C1.22992 6.12782 1.18652 7.00196 1.14832 7.89691C1.14398 7.91971 1.1379 7.94183 1.13618 7.96528V7.96571C1.07108 7.76561 1.019 7.55425 0.985137 7.31901C0.924397 6.90321 0.892257 6.17752 1.25336 5.6582ZM15.6416 9.28319C14.9715 8.14214 11.8117 7.27755 8.00782 7.27755C4.20308 7.27755 1.04416 8.14214 0.373177 9.28319C0.287237 9.42966 0.236897 9.58027 0.236897 9.73438C0.236897 11.0909 3.71524 12.1908 8.00782 12.1908C12.2961 12.1908 15.7727 11.0927 15.7779 9.73699C15.7779 9.73612 15.7779 9.73526 15.7779 9.73438C15.7779 9.73351 15.7779 9.73263 15.7779 9.73177C15.777 9.57833 15.7267 9.42883 15.6416 9.28319Z" fill="black"/>
</g>
</g>
<defs>
<clipPath id="clip0_16_113">
<rect width="16" height="16" fill="white" transform="translate(0 0.234375)"/>
</clipPath>
</defs>
</svg>
