<svg width="16" height="17" viewBox="0 0 16 17" fill="none" xmlns="http://www.w3.org/2000/svg">
<g id="business-meeting-group-on-circular-table-svgrepo-com 1" clip-path="url(#clip0_228_416)">
<g id="Group">
<path id="Vector" d="M8.00782 12.9043C4.70742 12.9043 1.37578 12.2505 0.222097 10.9924V13.916H7.32812V15.1949H5.66838V16.5H10.27V15.1949H8.61026V13.916H15.7779V11.0063C14.6121 12.2552 11.2952 12.9043 8.00782 12.9043ZM5.14538 7.26888C5.21788 6.83702 5.31118 6.40212 5.4683 5.97308C5.62584 5.541 5.86196 5.02908 6.24392 4.66774C6.4922 4.35438 7.08984 4.08528 7.8685 4.059L7.50564 7.10566C7.1723 7.1124 6.84284 7.1239 6.52168 7.14322C6.5321 6.92424 6.54208 6.71418 6.5512 6.5271C6.48436 6.73022 6.43444 6.93986 6.38976 7.15298C5.9622 7.18122 5.54596 7.21942 5.14538 7.26888ZM6.33334 2.19552C6.33334 1.2589 7.09114 0.5 8.02648 0.5C8.96096 0.5 9.71834 1.2589 9.71834 2.19552C9.71834 3.13216 8.96096 3.89062 8.02648 3.89062C7.09114 3.89062 6.33334 3.13216 6.33334 2.19552ZM3.63708 4.77432C4.07284 5.09006 4.29506 5.5968 4.42398 5.95032C4.44742 6.01498 4.4613 6.0842 4.48258 6.14976C4.36234 6.5777 4.28508 7.00132 4.22302 7.40778C4.08414 7.43208 3.9461 7.45704 3.812 7.48396C3.74776 7.08552 3.66834 6.67428 3.56982 6.38326C3.5963 6.72376 3.62538 7.12372 3.65098 7.51802C3.37972 7.5751 3.11712 7.6363 2.86886 7.70402L2.5594 4.44816C2.77426 4.4629 2.98302 4.4972 3.16488 4.55428C3.32416 4.59658 3.48518 4.6645 3.63708 4.77432ZM9.60158 4.48242C10.1537 4.88282 10.4358 5.52518 10.599 5.97354C10.7565 6.40474 10.8503 6.8418 10.9228 7.27628C10.5222 7.2255 10.1059 7.18598 9.67796 7.15692C9.63368 6.94424 9.58336 6.73504 9.51738 6.53234C9.53214 6.72504 9.5482 6.93316 9.56382 7.14844C9.22438 7.12696 8.87718 7.11328 8.52428 7.1059L8.23566 4.0688C8.50824 4.08748 8.77256 4.13108 9.00346 4.20314C9.20488 4.25696 9.40932 4.3431 9.60158 4.48242ZM13.7305 4.44208L14.1585 8.03192C14.7809 8.2728 15.2831 8.55274 15.6329 8.8635C15.7792 8.51694 15.8894 8.14866 15.9515 7.72114C16.1134 6.60656 15.8669 5.66212 15.2579 5.06186C15.0383 4.84506 14.8204 4.71204 14.6042 4.62674C14.3738 4.52236 14.0739 4.45378 13.7305 4.44208ZM15.0149 7.58464C14.981 7.81988 14.9289 8.03124 14.8638 8.23134V8.2309C14.8621 8.20746 14.856 8.18534 14.8517 8.16254C14.8135 7.26758 14.7705 6.39346 14.7471 5.92382C15.1077 6.44314 15.0756 7.16884 15.0149 7.58464ZM12.2709 2.96984C12.2709 2.23068 12.8686 1.63216 13.606 1.63216C14.3439 1.63216 14.9419 2.23068 14.9419 2.96984C14.9419 3.70898 14.3439 4.3073 13.606 4.3073C12.8686 4.3073 12.2709 3.70898 12.2709 2.96984ZM11.8451 7.4169C11.777 6.97418 11.6902 6.50848 11.55 6.0395C11.5599 6.01044 11.5656 5.9794 11.576 5.95032C11.7049 5.5968 11.9272 5.09006 12.3629 4.77432C12.5149 4.6645 12.6759 4.59658 12.8351 4.55426C13.017 4.49718 13.2258 4.4629 13.4406 4.44814L13.1316 7.7001C12.8829 7.63282 12.6207 7.57162 12.3495 7.51476C12.3747 7.12152 12.4037 6.72266 12.4302 6.38324C12.3126 6.73068 12.2306 7.09874 12.1689 7.47656C12.063 7.4555 11.954 7.43622 11.8451 7.4169ZM1.05806 2.96984C1.05806 2.23068 1.65616 1.63216 2.39402 1.63216C3.13144 1.63216 3.7291 2.23068 3.7291 2.96984C3.7291 3.70898 3.13144 4.3073 2.39402 4.3073C1.65618 4.3073 1.05806 3.70898 1.05806 2.96984ZM0.371417 8.87458C0.718637 8.56208 1.21822 8.28018 1.84106 8.0378L2.26944 4.4421C1.92612 4.45382 1.6262 4.5224 1.39572 4.62676C1.17956 4.71206 0.961677 4.84508 0.742497 5.06188C0.133117 5.6621 -0.113383 6.60656 0.0484769 7.72114C0.110997 8.153 0.222537 8.52496 0.371417 8.87458ZM1.25336 5.92382C1.22992 6.39344 1.18652 7.26758 1.14832 8.16254C1.14398 8.18534 1.1379 8.20746 1.13618 8.2309V8.23134C1.07108 8.03124 1.019 7.81988 0.985137 7.58464C0.924397 7.16884 0.892257 6.44314 1.25336 5.92382ZM15.6416 9.54882C14.9715 8.40776 11.8117 7.54318 8.00782 7.54318C4.20308 7.54318 1.04416 8.40776 0.373177 9.54882C0.287237 9.69528 0.236897 9.8459 0.236897 10C0.236897 11.3566 3.71524 12.4564 8.00782 12.4564C12.2961 12.4564 15.7727 11.3583 15.7779 10.0026C15.7779 10.0017 15.7779 10.0009 15.7779 10C15.7779 9.99914 15.7779 9.99826 15.7779 9.9974C15.777 9.84396 15.7267 9.69446 15.6416 9.54882Z" fill="black"/>
</g>
</g>
<defs>
<clipPath id="clip0_228_416">
<rect width="16" height="16" fill="white" transform="translate(0 0.5)"/>
</clipPath>
</defs>
</svg>
