<svg width="16" height="17" viewBox="0 0 16 17" fill="none" xmlns="http://www.w3.org/2000/svg">
<g id="businessmen-having-a-group-conference-svgrepo-com 1" clip-path="url(#clip0_16_102)">
<g id="Group">
<g id="Group_2">
<path id="Vector" d="M8.0019 5.54141C8.57462 5.54141 9.03978 4.87713 9.03978 4.30425C9.03978 3.73113 8.57462 3.26605 8.0019 3.26605C7.42894 3.26605 6.96436 3.73072 6.96436 4.30425C6.96436 4.87722 7.42902 5.54141 8.0019 5.54141Z" fill="black"/>
<path id="Vector_2" d="M6.76986 7.50515L6.77068 6.66321C6.79736 6.65538 6.82478 6.64722 6.85351 6.63889V7.50523H7.73502L7.95104 5.82462H7.94745L7.85025 5.62885C7.08935 5.6663 6.25933 5.96425 6.22138 5.97829C6.21738 5.97918 6.21608 5.98253 6.21224 5.98343C6.18311 5.99526 6.15895 6.01403 6.13316 6.0319C6.11448 6.04455 6.09301 6.05377 6.07734 6.06936C6.05825 6.08813 6.04584 6.11179 6.02985 6.13432C6.01581 6.15537 5.99786 6.17365 5.98782 6.19691C5.97827 6.21837 5.9764 6.24269 5.97003 6.26554C5.9626 6.29427 5.95298 6.32267 5.95257 6.35278C5.95257 6.35662 5.95028 6.35972 5.95028 6.36347L5.94824 7.51747C5.9875 7.51094 6.02675 7.50515 6.06739 7.50515H6.76986Z" fill="black"/>
<path id="Vector_3" d="M9.33445 6.04402L9.41263 6.01301L9.48265 5.88081C9.1656 5.78614 8.6474 5.65304 8.15392 5.62872L8.05689 5.8245H8.0542L8.26948 7.50486H8.62112L8.94698 6.89085L8.92911 6.80892C8.85843 6.48657 9.02924 6.16521 9.33445 6.04402Z" fill="black"/>
<path id="Vector_4" d="M13.4482 5.08101C14.0624 5.08101 14.5604 4.36899 14.5604 3.75587C14.5604 3.14227 14.0624 2.64423 13.4482 2.64423C12.8351 2.64423 12.3374 3.1417 12.3374 3.75587C12.3374 4.36907 12.8352 5.08101 13.4482 5.08101Z" fill="black"/>
<path id="Vector_5" d="M15.5609 7.88042C15.539 7.88042 15.5203 7.88956 15.4997 7.89274L15.5363 7.85218C15.6087 7.77106 15.649 7.66628 15.649 7.55758L15.6452 5.96119C15.6452 5.95719 15.643 5.95409 15.643 5.95025C15.6421 5.91785 15.6319 5.88774 15.6244 5.85657C15.6178 5.83192 15.6159 5.8063 15.6053 5.78304C15.5947 5.7579 15.5757 5.73824 15.5601 5.7158C15.5436 5.69197 15.5302 5.66626 15.5096 5.64619C15.4926 5.62978 15.47 5.61974 15.4499 5.60636C15.4221 5.5871 15.3969 5.56711 15.3649 5.55479C15.3614 5.5534 15.3592 5.55013 15.3554 5.54924C15.315 5.53471 14.426 5.21546 13.611 5.17523L13.5067 5.38464H13.5033L13.7994 7.68978L13.4472 8.30388L13.0958 7.68978L13.3908 5.38464H13.3882L13.2841 5.17564C12.4978 5.21408 11.6453 5.51129 11.5488 5.54565L9.80873 6.12595L9.91351 5.92969C9.93587 5.88684 9.92028 5.83372 9.87695 5.81136C9.835 5.78834 9.78139 5.80442 9.75772 5.84751L9.56709 6.20666L9.44019 6.24893C9.20973 6.32573 9.08553 6.57446 9.16248 6.80484C9.17317 6.83585 9.19031 6.86156 9.20622 6.88857L8.88135 7.5025C8.85882 7.54567 8.87449 7.59855 8.91774 7.62148C8.9308 7.62817 8.94451 7.6316 8.95904 7.6316C8.98964 7.6316 9.02049 7.61462 9.03648 7.58492L9.3332 7.02608C9.40534 7.07577 9.49201 7.10417 9.58129 7.10417C9.62772 7.10417 9.67424 7.09699 9.72067 7.08181L11.8297 6.37852C11.8317 6.37804 11.8328 6.37624 11.8344 6.37534C11.8374 6.37493 11.8383 6.37534 11.84 6.37493C11.8447 6.37355 11.9954 6.32001 12.2189 6.25636V9.12876L11.0704 9.35913C10.8349 9.40704 10.6605 9.60746 10.6478 9.84763L10.4611 13.2674C10.4451 13.5585 10.6683 13.8072 10.9595 13.8229C10.9688 13.8234 10.9782 13.8238 10.988 13.8238C11.2658 13.8238 11.499 13.6058 11.514 13.3255L11.6786 10.313L12.1294 10.222V13.296C12.1294 13.539 12.3263 13.7355 12.5693 13.7355H15.5609C15.8027 13.7355 16.0002 13.5385 16.0002 13.296V9.82813V9.47624V8.31946C16.0003 8.07717 15.8034 7.88042 15.5609 7.88042ZM14.679 6.2566C14.7094 6.26574 14.7388 6.27439 14.767 6.28272L14.7689 7.3902L14.6789 7.49083V6.2566H14.679ZM15.1217 12.8573H13.0089V10.5285L15.1217 10.032V12.8573ZM15.1217 8.31987V9.129L14.6789 9.23297V8.80568L15.1232 8.31179C15.1233 8.31457 15.1217 8.31677 15.1217 8.31987Z" fill="black"/>
<path id="Vector_6" d="M2.55273 5.08101C3.16584 5.08101 3.66389 4.36899 3.66389 3.75587C3.66389 3.14227 3.16584 2.64423 2.55273 2.64423C1.93872 2.64423 1.44092 3.1417 1.44092 3.75587C1.44092 4.36907 1.93872 5.08101 2.55273 5.08101Z" fill="black"/>
<path id="Vector_7" d="M4.93077 9.3594L3.78256 9.12902V6.25663C3.81381 6.26577 3.84295 6.27401 3.8702 6.28225V8.07115C3.8702 8.23771 3.96454 8.3895 4.11315 8.46458L4.81652 8.81598C4.87952 8.84683 4.94668 8.8629 5.01254 8.8629C5.17395 8.8629 5.32917 8.77403 5.40604 8.61906C5.51426 8.40199 5.42694 8.13856 5.2088 8.02937L4.74927 7.79981V5.96186C4.74927 5.95762 4.74682 5.95452 4.74682 5.94978C4.74601 5.91747 4.73548 5.88687 4.72773 5.85561C4.72145 5.83145 4.71916 5.80583 4.70961 5.78306C4.69835 5.75735 4.67885 5.73679 4.66334 5.71451C4.64677 5.69109 4.63364 5.66587 4.61291 5.64629C4.59577 5.62931 4.57325 5.61944 4.55227 5.60516C4.52526 5.58688 4.50013 5.56672 4.46855 5.55448C4.46544 5.55293 4.46267 5.54975 4.459 5.54893C4.41877 5.5344 3.5295 5.21524 2.71408 5.17493L2.60979 5.38433H2.60701L2.90251 7.68948L2.55078 8.30341L2.19873 7.68948L2.49456 5.38433H2.49129L2.38667 5.17493C1.57167 5.21516 0.682315 5.53416 0.642654 5.54893C0.638329 5.54983 0.636533 5.55293 0.632943 5.55448C0.601279 5.56672 0.57541 5.58729 0.547908 5.60606C0.52767 5.61985 0.504738 5.62931 0.487846 5.64572C0.467281 5.66587 0.454142 5.69158 0.437576 5.71541C0.422152 5.73769 0.403301 5.75735 0.392202 5.78265C0.381757 5.80542 0.37988 5.83113 0.373025 5.8561C0.365435 5.88735 0.355479 5.91706 0.354337 5.94987C0.354337 5.95362 0.352052 5.95721 0.352052 5.9608L0.351562 7.5576C0.351154 7.6663 0.391305 7.77109 0.464098 7.8522L0.50074 7.89276C0.480338 7.88958 0.461487 7.88044 0.439371 7.88044C0.197162 7.88044 0 8.0776 0 8.31989V9.47757V9.82888V13.2968C0 13.5397 0.197162 13.7367 0.439371 13.7367H3.43083C3.67378 13.7367 3.8702 13.5393 3.8702 13.2968V10.2227L4.32165 10.3133L4.48576 13.3257C4.50143 13.6071 4.73418 13.8244 5.01213 13.8244C5.02168 13.8244 5.03122 13.8244 5.04094 13.8236C5.33178 13.8075 5.5549 13.5592 5.53906 13.2684L5.35235 9.84888C5.34051 9.60773 5.16612 9.4073 4.93077 9.3594ZM1.23341 6.28274C1.26164 6.27442 1.29094 6.26577 1.32162 6.25663V7.49085L1.23137 7.39023L1.23341 6.28274ZM1.32195 8.8057V9.23299L0.879232 9.12902V8.31989C0.879232 8.31728 0.877518 8.31459 0.877518 8.31181L1.32195 8.8057ZM2.99187 12.8573H0.879232V10.032L2.99179 10.5285L2.99187 12.8573Z" fill="black"/>
<path id="Vector_8" d="M9.93497 7.73383H6.06763C5.77653 7.73383 5.54053 7.96959 5.54053 8.26092C5.54053 8.55202 5.77702 8.78786 6.06763 8.78786H6.16555V13.2962C6.16555 13.5393 6.36214 13.7357 6.60509 13.7357H9.39841C9.64078 13.7357 9.8377 13.5387 9.8377 13.2962V8.78786H9.93497C10.2263 8.78786 10.4619 8.55202 10.4619 8.26092C10.4626 7.96959 10.2263 7.73383 9.93497 7.73383Z" fill="black"/>
</g>
</g>
</g>
<defs>
<clipPath id="clip0_16_102">
<rect width="16" height="16" fill="white" transform="translate(0 0.234375)"/>
</clipPath>
</defs>
</svg>
