<svg width="33" height="33" viewBox="0 0 33 33" fill="none" xmlns="http://www.w3.org/2000/svg">
<path d="M15.8997 10.6682C16.0526 10.3599 16.1291 10.2058 16.2312 10.1554C16.3201 10.1116 16.4227 10.1116 16.5117 10.1554C16.6139 10.2058 16.6903 10.3599 16.8433 10.6682L17.7813 12.5591C17.8473 12.6922 17.8803 12.7588 17.9295 12.8031C17.9729 12.8422 18.0251 12.8689 18.0809 12.8805C18.1441 12.8937 18.2137 12.8797 18.3529 12.8515L20.3291 12.4518C20.6513 12.3866 20.8124 12.3541 20.9131 12.4075C21.0009 12.4541 21.0648 12.5393 21.088 12.6405C21.1147 12.7568 21.0489 12.9164 20.9174 13.2357L20.1109 15.1938C20.0541 15.3317 20.0257 15.4006 20.0237 15.4691C20.022 15.5295 20.0349 15.5894 20.0611 15.6431C20.0909 15.7039 20.1446 15.7529 20.2521 15.8509L21.7783 17.2434C22.0272 17.4704 22.1516 17.584 22.1751 17.7009C22.1955 17.8028 22.1727 17.9091 22.1127 17.9915C22.0437 18.0861 21.8853 18.131 21.5683 18.2208L19.6246 18.7717C19.4877 18.8105 19.4193 18.8299 19.3677 18.871C19.3222 18.9072 19.2861 18.9553 19.263 19.0105C19.2368 19.0732 19.2342 19.1483 19.2291 19.2987L19.1561 21.4347C19.1442 21.783 19.1383 21.9571 19.0668 22.0496C19.0045 22.1301 18.9121 22.1774 18.8141 22.1789C18.7015 22.1806 18.5697 22.077 18.3059 21.8697L16.6887 20.5986C16.5748 20.5091 16.5179 20.4643 16.4555 20.447C16.4004 20.4318 16.3425 20.4318 16.2875 20.447C16.2251 20.4643 16.1681 20.5091 16.0543 20.5986L14.437 21.8697C14.1733 22.077 14.0415 22.1806 13.9289 22.1789C13.8308 22.1774 13.7384 22.1301 13.6762 22.0496C13.6047 21.9571 13.5987 21.783 13.5868 21.4347L13.5139 19.2987C13.5087 19.1483 13.5062 19.0732 13.48 19.0105C13.4568 18.9553 13.4208 18.9072 13.3752 18.871C13.3236 18.8299 13.2552 18.8105 13.1183 18.7717L11.1746 18.2208C10.8577 18.131 10.6992 18.0861 10.6303 17.9915C10.5703 17.9091 10.5474 17.8028 10.5679 17.7009C10.5913 17.584 10.7158 17.4704 10.9646 17.2434L12.4909 15.8509C12.5984 15.7529 12.6521 15.7039 12.6818 15.6431C12.708 15.5894 12.7209 15.5295 12.7192 15.4691C12.7172 15.4006 12.6888 15.3317 12.6321 15.1938L11.8255 13.2357C11.694 12.9164 11.6283 12.7568 11.6549 12.6405C11.6781 12.5393 11.7421 12.4541 11.8298 12.4075C11.9305 12.3541 12.0916 12.3866 12.4139 12.4518L14.3901 12.8515C14.5292 12.8797 14.5988 12.8937 14.662 12.8805C14.7179 12.8689 14.77 12.8422 14.8134 12.8031C14.8626 12.7588 14.8956 12.6922 14.9616 12.5591L15.8997 10.6682Z" stroke="white" stroke-linecap="round" stroke-linejoin="round"/>
<path fill-rule="evenodd" clip-rule="evenodd" d="M1.37207 1.44629H31.3721V6.94629H32.3721V1.44629V0.446289H31.3721H1.37207H0.37207V1.44629V31.4463V32.4463H1.37207H31.3721H32.3721V31.4463V25.9463H31.3721V31.4463H1.37207V1.44629Z" fill="white"/>
</svg>
