<svg width="50" height="293" viewBox="0 0 50 293" fill="none" xmlns="http://www.w3.org/2000/svg">
<g opacity="0.1">
<path d="M-1.19102e-06 265.476L42.1833 265.476C44.0582 265.476 45.4539 265.143 46.3704 264.476C47.2453 263.768 47.6828 262.518 47.6828 260.726L48.9952 260.726C48.8702 262.018 48.8077 263.309 48.8077 264.601C48.8077 265.809 48.8702 266.976 48.9952 268.101C49.1202 269.184 49.3493 270.184 49.6826 271.1L7.49926 271.1C5.62444 271.1 4.24958 271.434 3.37467 272.1C2.45809 272.767 1.9998 274.017 1.9998 275.85L0.68743 275.85C0.812419 274.517 0.874913 273.225 0.874913 271.975C0.874913 270.767 0.812418 269.621 0.68743 268.538C0.520782 267.413 0.291638 266.392 -1.19102e-06 265.476ZM15.9359 278.6C15.9359 276.766 16.3734 275.058 17.2483 273.475C18.1232 271.85 19.6231 270.767 21.7479 270.225L22.3728 271.038C20.623 271.621 19.3523 272.538 18.5607 273.788C17.7691 274.996 17.3733 276.433 17.3733 278.1C17.3733 280.558 18.644 282.62 21.1854 284.286C23.7268 285.911 27.6431 286.703 32.9343 286.661C36.3089 286.661 39.1211 286.349 41.3709 285.724C43.579 285.057 45.2455 284.099 46.3704 282.849C47.4537 281.558 47.9953 279.995 47.9953 278.162C47.9953 276.412 47.2453 274.829 45.7455 273.413C44.2456 271.996 42.0375 271.142 39.1211 270.85L39.9961 270.1C43.1624 270.434 45.5997 271.454 47.3078 273.163C49.016 274.829 49.8701 277.1 49.8701 279.974C49.8701 282.557 49.2451 284.828 47.9953 286.786C46.7454 288.703 44.8706 290.182 42.3708 291.223C39.8711 292.223 36.7255 292.723 32.9343 292.723C29.143 292.723 25.9974 292.077 23.4977 290.786C20.9563 289.453 19.0606 287.724 17.8107 285.599C16.5609 283.432 15.9359 281.099 15.9359 278.6Z" fill="#081841"/>
<path d="M15.9359 242.412C15.9359 238.746 17.0608 235.892 19.3106 233.851C21.5187 231.767 24.9767 230.726 29.6846 230.726L29.6846 252.786L28.4972 252.849L28.4972 236.725C26.4557 236.642 24.5809 236.809 22.8727 237.225C21.1229 237.642 19.7272 238.308 18.6857 239.225C17.6441 240.1 17.1233 241.246 17.1233 242.662C17.1233 244.579 18.0816 246.287 19.998 247.787C21.9145 249.245 24.9559 250.12 29.1221 250.411L29.3721 250.224C29.997 250.307 30.6845 250.37 31.4344 250.411C32.1843 250.453 32.9343 250.474 33.6842 250.474C36.5172 250.474 38.9545 250.016 40.996 249.099C43.0374 248.182 44.5998 246.995 45.683 245.537C46.7246 244.037 47.2453 242.496 47.2453 240.912C47.2453 239.662 47.0579 238.475 46.6829 237.35C46.2663 236.225 45.5997 235.184 44.6831 234.225C43.7665 233.267 42.5375 232.434 40.996 231.726L41.4959 230.476C42.8708 230.934 44.204 231.684 45.4955 232.726C46.7871 233.767 47.8494 235.08 48.6827 236.663C49.4743 238.246 49.8701 240.079 49.8701 242.162C49.8701 245.162 49.1826 247.745 47.8078 249.911C46.4329 252.036 44.5373 253.682 42.1208 254.848C39.6628 255.973 36.8505 256.536 33.6842 256.536C30.0179 256.536 26.8723 255.953 24.2476 254.786C21.5812 253.619 19.5397 251.974 18.1232 249.849C16.665 247.724 15.9359 245.245 15.9359 242.412Z" fill="#081841"/>
<path d="M-4.16013e-06 197.55L42.1833 197.55C44.0582 197.55 45.4538 197.217 46.3704 196.55C47.2453 195.842 47.6828 194.592 47.6828 192.801L48.9952 192.801C48.8702 194.092 48.8077 195.384 48.8077 196.675C48.8077 197.884 48.8702 199.05 48.9952 200.175C49.1202 201.258 49.3493 202.258 49.6826 203.175L7.49926 203.175C5.62444 203.175 4.24958 203.508 3.37466 204.175C2.45809 204.841 1.9998 206.091 1.9998 207.924L0.687427 207.924C0.812416 206.591 0.87491 205.3 0.87491 204.05C0.87491 202.842 0.812415 201.696 0.687427 200.613C0.520779 199.488 0.291635 198.467 -4.16013e-06 197.55ZM15.9359 210.674C15.9359 208.841 16.3734 207.133 17.2483 205.55C18.1232 203.925 19.6231 202.842 21.7479 202.3L22.3728 203.112C20.623 203.696 19.3523 204.612 18.5607 205.862C17.7691 207.07 17.3733 208.508 17.3733 210.174C17.3733 212.632 18.644 214.695 21.1854 216.361C23.7268 217.986 27.6431 218.777 32.9343 218.736C36.3089 218.736 39.1211 218.423 41.3709 217.798C43.579 217.132 45.2455 216.174 46.3704 214.924C47.4537 213.632 47.9953 212.07 47.9953 210.237C47.9953 208.487 47.2453 206.904 45.7455 205.487C44.2456 204.071 42.0375 203.217 39.1211 202.925L39.9961 202.175C43.1624 202.508 45.5997 203.529 47.3078 205.237C49.016 206.904 49.8701 209.174 49.8701 212.049C49.8701 214.632 49.2451 216.903 47.9953 218.861C46.7454 220.777 44.8706 222.256 42.3708 223.298C39.8711 224.298 36.7255 224.798 32.9343 224.798C29.143 224.798 25.9974 224.152 23.4977 222.86C20.9563 221.527 19.0606 219.798 17.8107 217.673C16.5609 215.507 15.9359 213.174 15.9359 210.674Z" fill="#081841"/>
<path d="M1.18738 182.548C1.18738 181.465 1.58317 180.528 2.37476 179.736C3.16635 178.945 4.10376 178.549 5.18698 178.549C6.27021 178.549 7.20762 178.945 7.99921 179.736C8.7908 180.528 9.18659 181.465 9.18659 182.548C9.18659 183.632 8.7908 184.569 7.99921 185.361C7.20762 186.152 6.27021 186.548 5.18698 186.548C4.10376 186.548 3.16635 186.152 2.37476 185.361C1.58317 184.569 1.18738 183.632 1.18738 182.548ZM16.1234 179.299L43.1832 179.299C44.9331 179.299 46.1204 178.945 46.7454 178.236C47.3703 177.486 47.6828 176.257 47.6828 174.549L48.9952 174.549C48.9535 175.258 48.9118 176.341 48.8702 177.799C48.7869 179.215 48.7452 180.653 48.7452 182.111C48.7452 183.528 48.7869 184.965 48.8702 186.423C48.9118 187.881 48.9535 188.964 48.9952 189.673L47.6828 189.673C47.6828 187.965 47.3703 186.756 46.7454 186.048C46.1204 185.298 44.9331 184.923 43.1832 184.923L23.6227 184.923C21.7479 184.923 20.373 185.257 19.4981 185.923C18.5815 186.59 18.1232 187.84 18.1232 189.673L16.8108 189.673C16.9358 188.34 16.9983 187.048 16.9983 185.798C16.9983 184.59 16.9358 183.444 16.8108 182.361C16.6442 181.236 16.415 180.215 16.1234 179.299Z" fill="#081841"/>
<path d="M15.9359 155.741C15.9359 154.407 16.1026 153.116 16.4359 151.866C16.7692 150.616 17.2691 149.491 17.9357 148.491C18.5607 147.533 19.2898 146.804 20.123 146.304C20.9146 145.804 21.7895 145.554 22.7478 145.554C23.8726 145.554 24.7476 145.867 25.3725 146.491C25.9558 147.116 26.2474 147.908 26.2474 148.866C26.2474 149.783 25.9766 150.595 25.435 151.304C24.8934 151.97 24.1226 152.303 23.1227 152.303C22.1645 152.303 21.3937 152.053 20.8104 151.553C20.2272 151.012 19.8522 150.387 19.6856 149.679C18.9356 150.095 18.3107 150.845 17.8107 151.928C17.3108 152.97 17.0608 154.095 17.0608 155.303C17.0608 156.345 17.3108 157.386 17.8107 158.428C18.3107 159.469 19.1439 160.428 20.3105 161.303C21.4354 162.177 22.9977 162.886 24.9975 163.427C26.9557 163.969 29.4138 164.24 32.3718 164.24C36.0381 164.24 38.9545 163.823 41.1209 162.99C43.2874 162.157 44.8497 161.073 45.808 159.74C46.7246 158.365 47.1828 156.865 47.1828 155.241C47.1828 154.157 46.9745 153.053 46.5579 151.928C46.1413 150.804 45.4747 149.741 44.5581 148.741C43.5999 147.741 42.3292 146.887 40.746 146.179L41.1834 144.992C42.5166 145.408 43.8707 146.096 45.2455 147.054C46.5787 148.012 47.6828 149.262 48.5577 150.804C49.4326 152.345 49.8701 154.241 49.8701 156.49C49.8701 159.074 49.2035 161.407 47.8703 163.49C46.5371 165.573 44.6414 167.239 42.1833 168.489C39.6836 169.698 36.7255 170.302 33.3092 170.302C29.8929 170.302 26.8932 169.698 24.3101 168.489C21.6854 167.239 19.6439 165.51 18.1857 163.302C16.6858 161.094 15.9359 158.574 15.9359 155.741Z" fill="#081841"/>
<path d="M49.4326 132.097C49.4326 133.806 49.1201 135.285 48.4952 136.534C47.8286 137.784 46.912 138.743 45.7455 139.409C44.5789 140.034 43.2249 140.347 41.6834 140.347C39.8502 140.347 38.3504 139.93 37.1838 139.097C36.0173 138.222 35.0799 137.118 34.3716 135.785C33.6633 134.451 33.0801 133.056 32.6218 131.597C32.1218 130.098 31.6635 128.681 31.2469 127.348C30.7886 126.015 30.2678 124.931 29.6846 124.098C29.1013 123.223 28.3305 122.786 27.3723 122.786L23.4977 122.786C21.7479 122.786 20.4146 123.057 19.4981 123.598C18.5815 124.098 17.9774 124.786 17.6857 125.661C17.3524 126.535 17.1858 127.515 17.1858 128.598C17.1858 129.639 17.3316 130.764 17.6233 131.972C17.9149 133.139 18.519 134.076 19.4356 134.785C19.6022 133.993 20.0189 133.306 20.6855 132.722C21.3521 132.139 22.2061 131.847 23.2477 131.847C24.2893 131.847 25.1225 132.181 25.7475 132.847C26.3307 133.514 26.6224 134.368 26.6224 135.41C26.6224 136.618 26.2474 137.514 25.4975 138.097C24.7059 138.638 23.831 138.909 22.8727 138.909C21.7895 138.909 20.9146 138.638 20.248 138.097C19.5814 137.555 18.9565 136.868 18.3732 136.034C17.7066 135.076 17.1441 133.847 16.6858 132.347C16.1859 130.806 15.9359 129.077 15.9359 127.16C15.9359 125.452 16.1442 123.994 16.5609 122.786C16.9358 121.578 17.4983 120.578 18.2482 119.786C19.2481 118.703 20.4771 117.995 21.9353 117.661C23.3519 117.328 25.06 117.161 27.0598 117.161L44.4331 117.161C45.4747 117.161 46.2246 117.016 46.6829 116.724C47.1412 116.391 47.3703 115.891 47.3703 115.224C47.3703 114.766 47.2662 114.328 47.0578 113.912C46.8495 113.495 46.5162 112.995 46.058 112.412L47.1203 111.724C47.7869 112.599 48.3494 113.433 48.8077 114.224C49.2243 115.016 49.4326 116.078 49.4326 117.411C49.4326 118.62 49.2243 119.619 48.8077 120.411C48.3911 121.203 47.7869 121.807 46.9954 122.223C46.1621 122.598 45.1205 122.786 43.8707 122.786C45.7455 123.911 47.1412 125.265 48.0578 126.848C48.9743 128.389 49.4326 130.139 49.4326 132.097ZM46.9329 129.848C46.9329 128.473 46.5371 127.202 45.7455 126.035C44.9539 124.827 43.7665 123.744 42.1833 122.786L29.9345 122.786C30.6428 123.286 31.2469 124.015 31.7469 124.973C32.2052 125.931 32.6843 126.973 33.1842 128.098C33.6425 129.223 34.205 130.306 34.8716 131.347C35.4965 132.347 36.3297 133.181 37.3713 133.847C38.4129 134.514 39.7669 134.847 41.4334 134.847C43.0999 134.847 44.4331 134.41 45.433 133.535C46.4329 132.618 46.9329 131.389 46.9329 129.848Z" fill="#081841"/>
<path d="M6.43686 99.7851L16.8733 99.7851L16.8733 90.5361L18.1232 90.5361L18.1232 99.7851L42.3083 99.7851C44.2665 99.7851 45.6413 99.431 46.4329 98.7227C47.2245 98.0145 47.6203 97.0354 47.6203 95.7856C47.6203 94.5357 47.1203 93.4524 46.1204 92.5359C45.0789 91.6193 43.3499 90.8277 40.9335 90.1611L41.2459 88.9112C43.6624 89.3278 45.7038 90.1611 47.3703 91.411C49.0368 92.6192 49.8701 94.494 49.8701 97.0354C49.8701 98.4519 49.6826 99.6185 49.3076 100.535C48.9743 101.452 48.4744 102.264 47.8078 102.972C46.8495 103.889 45.7038 104.535 44.3706 104.91C43.0374 105.243 41.2668 105.41 39.0586 105.41L18.1232 105.41L18.1232 111.409L16.8733 111.409L16.8733 105.41L7.31177 105.41C7.27011 104.368 7.18678 103.368 7.0618 102.41C6.93681 101.452 6.72849 100.577 6.43686 99.7851Z" fill="#081841"/>
<path d="M1.18737 80.6298C1.18737 79.5466 1.58317 78.6092 2.37476 77.8176C3.16634 77.026 4.10375 76.6302 5.18698 76.6302C6.27021 76.6302 7.20761 77.026 7.9992 77.8176C8.79079 78.6092 9.18659 79.5466 9.18659 80.6298C9.18659 81.713 8.79079 82.6505 7.9992 83.442C7.20761 84.2336 6.27021 84.6294 5.18698 84.6294C4.10375 84.6294 3.16634 84.2336 2.37476 83.442C1.58317 82.6505 1.18737 81.713 1.18737 80.6298ZM16.1234 77.3801L43.1832 77.3801C44.9331 77.3801 46.1204 77.026 46.7454 76.3177C47.3703 75.5678 47.6828 74.3388 47.6828 72.6306L48.9952 72.6306C48.9535 73.3389 48.9118 74.4221 48.8702 75.8803C48.7868 77.2968 48.7452 78.7342 48.7452 80.1924C48.7452 81.6089 48.7868 83.0462 48.8702 84.5044C48.9118 85.9626 48.9535 87.0459 48.9952 87.7541L47.6828 87.7541C47.6828 86.0459 47.3703 84.8377 46.7454 84.1295C46.1204 83.3795 44.9331 83.0046 43.1832 83.0046L23.6227 83.0046C21.7478 83.0046 20.373 83.3379 19.4981 84.0045C18.5815 84.6711 18.1232 85.921 18.1232 87.7541L16.8108 87.7541C16.9358 86.4209 16.9983 85.1294 16.9983 83.8795C16.9983 82.6713 16.9358 81.5256 16.8108 80.4423C16.6442 79.3174 16.415 78.2967 16.1234 77.3801Z" fill="#081841"/>
<path d="M15.9359 54.1344C15.9359 51.468 16.5192 49.0724 17.6857 46.9476C18.8523 44.8228 20.6855 43.1354 23.1852 41.8856C25.685 40.594 28.9346 39.9483 32.9342 39.9483C36.9338 39.9483 40.1835 40.594 42.6833 41.8856C45.1414 43.1354 46.9537 44.8228 48.1202 46.9476C49.2868 49.0724 49.8701 51.468 49.8701 54.1344C49.8701 56.7591 49.2868 59.1547 48.1202 61.3212C46.9537 63.446 45.1414 65.1541 42.6833 66.4457C40.1835 67.6956 36.9339 68.3205 32.9342 68.3205C28.9346 68.3205 25.685 67.6956 23.1852 66.4457C20.6855 65.1541 18.8523 63.446 17.6857 61.3212C16.5192 59.1547 15.9359 56.7591 15.9359 54.1344ZM17.1858 54.1344C17.1858 56.5092 18.4148 58.4673 20.8729 60.0088C23.331 61.5087 27.3515 62.2586 32.9342 62.2586C38.517 62.2586 42.5375 61.5086 44.9956 60.0088C47.412 58.4673 48.6202 56.5092 48.6202 54.1344C48.6202 51.7596 47.412 49.8223 44.9956 48.3224C42.5375 46.7809 38.517 46.0102 32.9342 46.0102C27.3515 46.0102 23.331 46.7809 20.8729 48.3224C18.4148 49.8223 17.1858 51.7596 17.1858 54.1344Z" fill="#081841"/>
<path d="M15.9359 14.2101C15.9359 12.6269 16.1442 11.3145 16.5609 10.273C16.9775 9.18976 17.5608 8.29398 18.3107 7.58572C19.1439 6.79413 20.1855 6.23169 21.4354 5.89841C22.6853 5.56509 24.3726 5.39844 26.4974 5.39844L43.1832 5.39844C44.9331 5.39844 46.1204 5.04434 46.7454 4.33606C47.3703 3.58615 47.6828 2.35708 47.6828 0.648924L48.9952 0.648924C48.9535 1.35721 48.9118 2.4404 48.8702 3.89859C48.7868 5.35678 48.7452 6.77331 48.7452 8.14819C48.7452 9.52304 48.7868 10.8771 48.8702 12.2103C48.9118 13.5018 48.9535 14.4809 48.9952 15.1475L47.6828 15.1475C47.6828 13.6476 47.3703 12.5852 46.7454 11.9603C46.1204 11.3354 44.9331 11.0229 43.1832 11.0229L25.1225 11.0229C23.831 11.0229 22.6436 11.127 21.5604 11.3354C20.4771 11.5437 19.6022 12.0228 18.9356 12.7727C18.269 13.481 17.9357 14.5851 17.9357 16.0849C17.9357 17.8347 18.4357 19.3762 19.4356 20.7094C20.4355 22.001 21.8103 23.0217 23.5602 23.7716C25.2683 24.4799 27.1848 24.834 29.3096 24.834L43.1832 24.834C44.9331 24.834 46.1204 24.5216 46.7454 23.8966C47.3703 23.2717 47.6828 22.2093 47.6828 20.7094L48.9952 20.7094C48.9535 21.376 48.9118 22.3759 48.8702 23.7092C48.7868 25.0007 48.7452 26.3339 48.7452 27.7087C48.7452 29.0836 48.7868 30.5002 48.8702 31.9583C48.9118 33.4165 48.9535 34.4998 48.9952 35.208L47.6828 35.208C47.6828 33.4998 47.3703 32.2916 46.7454 31.5834C46.1204 30.8334 44.9331 30.4585 43.1832 30.4585L23.6227 30.4585C21.7478 30.4585 20.373 30.7918 19.4981 31.4584C18.5815 32.125 18.1232 33.3749 18.1232 35.208L16.8108 35.208C16.9358 33.8748 16.9983 32.5833 16.9983 31.3334C16.9983 30.1252 16.9358 28.9795 16.8108 27.8962C16.6442 26.7714 16.415 25.7506 16.1234 24.834L23.4977 24.834C20.6646 23.7508 18.7065 22.2509 17.6233 20.3345C16.4984 18.3763 15.9359 16.3349 15.9359 14.2101Z" fill="#081841"/>
</g>
</svg>
