<svg width="32" height="33" viewBox="0 0 32 33" fill="none" xmlns="http://www.w3.org/2000/svg">
<g id="church-svgrepo-com 2">
<path id="Vector" fill-rule="evenodd" clip-rule="evenodd" d="M15.9999 2.85596C16.7363 2.85596 17.3332 3.45292 17.3332 4.18929V5.52262H18.6665C19.4029 5.52262 19.9999 6.11958 19.9999 6.85596C19.9999 7.59233 19.4029 8.18929 18.6665 8.18929H17.3332V9.42669L28.0092 15.7068C28.644 16.0801 28.8559 16.8973 28.4824 17.532C28.1109 18.1636 27.2999 18.3765 26.6665 18.0106V26.856C26.6665 28.3288 25.4727 29.5226 23.9999 29.5226H19.9999H18.6665H13.3332H11.9999H7.99988C6.52712 29.5226 5.33322 28.3288 5.33322 26.856V18.0106C4.69986 18.3765 3.88883 18.1636 3.51731 17.532C3.14395 16.8973 3.35582 16.0801 3.99052 15.7068L14.6665 9.4267V8.18929H13.3332C12.5968 8.18929 11.9999 7.59233 11.9999 6.85596C11.9999 6.11958 12.5968 5.52262 13.3332 5.52262H14.6665V4.18929C14.6665 3.45292 15.2635 2.85596 15.9999 2.85596ZM14.6665 26.856H17.3332V22.856C17.3332 22.1196 16.7363 21.5226 15.9999 21.5226C15.2635 21.5226 14.6665 22.1196 14.6665 22.856V26.856ZM19.9999 26.856V22.856C19.9999 20.6468 18.2091 18.856 15.9999 18.856C13.7907 18.856 11.9999 20.6468 11.9999 22.856V26.856H7.99988V16.4421L15.9999 11.7362L23.9999 16.4421V26.856H19.9999Z" fill="#B4780A"/>
</g>
</svg>
