<svg width="31" height="31" viewBox="0 0 31 31" fill="none" xmlns="http://www.w3.org/2000/svg">
<path d="M15.0331 10.3926C15.1669 10.1206 15.2338 9.98455 15.3232 9.94014C15.401 9.90146 15.4907 9.90146 15.5686 9.94014C15.658 9.98455 15.7249 10.1206 15.8587 10.3926L16.6795 12.061C16.7373 12.1785 16.7661 12.2372 16.8092 12.2763C16.8472 12.3108 16.8928 12.3344 16.9416 12.3446C16.997 12.3563 17.0579 12.3439 17.1796 12.3191L18.9088 11.9664C19.1907 11.9089 19.3317 11.8801 19.4198 11.9273C19.4966 11.9684 19.5526 12.0436 19.5729 12.1329C19.5962 12.2354 19.5387 12.3763 19.4236 12.658L18.7179 14.3858C18.6682 14.5074 18.6434 14.5682 18.6416 14.6287C18.6401 14.682 18.6514 14.7348 18.6743 14.7822C18.7004 14.8358 18.7474 14.8791 18.8414 14.9656L20.1769 16.1942C20.3947 16.3945 20.5035 16.4947 20.524 16.5979C20.5419 16.6878 20.5219 16.7816 20.4694 16.8543C20.4091 16.9378 20.2705 16.9774 19.9931 17.0567L18.2924 17.5427C18.1726 17.577 18.1128 17.5941 18.0676 17.6303C18.0278 17.6623 17.9962 17.7047 17.976 17.7535C17.9531 17.8087 17.9508 17.875 17.9463 18.0077L17.8824 19.8925C17.872 20.1998 17.8668 20.3534 17.8043 20.435C17.7498 20.506 17.669 20.5478 17.5832 20.5491C17.4846 20.5506 17.3693 20.4592 17.1385 20.2763L15.7234 19.1547C15.6238 19.0757 15.574 19.0362 15.5194 19.021C15.4712 19.0075 15.4206 19.0075 15.3724 19.021C15.3178 19.0362 15.268 19.0757 15.1683 19.1547L13.7532 20.2763C13.5225 20.4592 13.4071 20.5506 13.3086 20.5491C13.2228 20.5478 13.1419 20.506 13.0875 20.435C13.0249 20.3534 13.0197 20.1998 13.0093 19.8925L12.9455 18.0077C12.941 17.875 12.9387 17.8087 12.9158 17.7535C12.8956 17.7047 12.864 17.6623 12.8241 17.6303C12.779 17.5941 12.7191 17.577 12.5994 17.5427L10.8986 17.0567C10.6213 16.9774 10.4826 16.9378 10.4223 16.8543C10.3698 16.7816 10.3499 16.6878 10.3677 16.5979C10.3883 16.4947 10.4971 16.3945 10.7149 16.1942L12.0504 14.9656C12.1444 14.8791 12.1914 14.8358 12.2174 14.7822C12.2404 14.7348 12.2517 14.682 12.2501 14.6287C12.2484 14.5682 12.2236 14.5074 12.1739 14.3858L11.4682 12.658C11.3531 12.3763 11.2956 12.2354 11.3189 12.1329C11.3392 12.0436 11.3952 11.9684 11.4719 11.9273C11.5601 11.8801 11.701 11.9089 11.983 11.9664L13.7122 12.3191C13.8339 12.3439 13.8948 12.3563 13.9501 12.3446C13.999 12.3344 14.0446 12.3108 14.0826 12.2763C14.1256 12.2372 14.1545 12.1785 14.2123 12.061L15.0331 10.3926Z" stroke="#B4780A" stroke-linecap="round" stroke-linejoin="round"/>
<path fill-rule="evenodd" clip-rule="evenodd" d="M1.6416 1.56445H29.2529V6.57925H30.2529V1.56445V0.564453H29.2529H1.6416H0.641602V1.56445V29.1758V30.1758H1.6416H29.2529H30.2529V29.1758V24.161H29.2529V29.1758H1.6416V1.56445Z" fill="#B4780A"/>
</svg>
