<svg width="65" height="65" viewBox="0 0 65 65" fill="none" xmlns="http://www.w3.org/2000/svg">
<g id="hand-contactless 1">
<path id="Vector" d="M5.84766 30.0283L13.333 21.6097C14.3337 20.4835 15.5617 19.5821 16.936 18.9648C18.3103 18.3475 19.7998 18.0283 21.3063 18.0283H21.8477M5.84766 52.695H20.5143L31.181 44.695C31.181 44.695 33.341 43.2363 36.5143 40.695C43.181 35.3617 36.5143 26.919 29.8477 31.3617C24.4183 34.9803 19.181 38.0283 19.181 38.0283" stroke="black" stroke-width="2.66667" stroke-linecap="round" stroke-linejoin="round"/>
<path id="Vector_2" d="M21.8477 36.695V19.3617C21.8477 17.9472 22.4096 16.5906 23.4098 15.5904C24.4099 14.5902 25.7665 14.0283 27.181 14.0283H53.8477C55.2621 14.0283 56.6187 14.5902 57.6189 15.5904C58.6191 16.5906 59.181 17.9472 59.181 19.3617V35.3617C59.181 36.7761 58.6191 38.1327 57.6189 39.1329C56.6187 40.1331 55.2621 40.695 53.8477 40.695H36.5143" stroke="black" stroke-width="2.66667"/>
<path id="Vector_3" d="M49.1836 32.695C50.5169 28.695 50.5169 26.0283 49.1836 22.0283M43.1836 24.695C43.7889 26.0283 43.7889 28.695 43.1836 30.0283" stroke="black" stroke-width="2.66667" stroke-linecap="round" stroke-linejoin="round"/>
</g>
</svg>
