<svg width="65" height="65" viewBox="0 0 65 65" fill="none" xmlns="http://www.w3.org/2000/svg">
<g id="money-square (2) 1">
<path id="Vector" d="M8.51562 55.0948V10.2948C8.51562 9.87048 8.6842 9.46351 8.98425 9.16345C9.28431 8.8634 9.69128 8.69482 10.1156 8.69482H54.9156C55.34 8.69482 55.7469 8.8634 56.047 9.16345C56.3471 9.46351 56.5156 9.87048 56.5156 10.2948V55.0948C56.5156 55.5192 56.3471 55.9261 56.047 56.2262C55.7469 56.5263 55.34 56.6948 54.9156 56.6948H10.1156C9.69128 56.6948 9.28431 56.5263 8.98425 56.2262C8.6842 55.9261 8.51562 55.5192 8.51562 55.0948Z" stroke="black" stroke-width="2.66667"/>
<path id="Vector_2" d="M40.5156 23.3613C38.689 21.5347 35.473 20.2653 32.5156 20.1853M32.5156 20.1853C28.9956 20.0893 25.849 21.6813 25.849 26.028C25.849 34.028 40.5156 30.028 40.5156 38.028C40.5156 42.5907 36.6116 44.5507 32.5156 44.404M32.5156 20.1853V15.3613M24.5156 40.6947C26.233 42.988 29.4303 44.2947 32.5156 44.404M32.5156 44.404V50.028" stroke="black" stroke-width="2.66667" stroke-linecap="round" stroke-linejoin="round"/>
</g>
</svg>
