<svg width="16" height="17" viewBox="0 0 16 17" fill="none" xmlns="http://www.w3.org/2000/svg">
<g id="party-popper-svgrepo-com 1" clip-path="url(#clip0_16_76)">
<path id="Vector" d="M9.917 12.1314C10.3053 11.7491 10.0958 10.8711 9.4615 9.85688C9.692 9.82088 9.9075 9.76588 10.0705 9.68163C10.657 9.37888 11.053 8.82713 11.3528 8.25638C11.675 7.64413 11.8913 6.97112 12.3118 6.41362C12.3828 6.31937 12.4538 6.23488 12.5245 6.15538C13.4318 6.26412 14.156 6.45913 14.156 6.45913L14.4328 5.75588C14.0834 5.63051 13.7253 5.53132 13.3613 5.45913C13.5843 5.33238 13.7298 5.29287 13.7298 5.29287L13.4675 4.58388C13.047 4.76163 12.7058 5.02387 12.42 5.33787C11.352 5.27812 10.2765 5.49088 9.428 6.14888C8.79 6.64388 8.359 7.33012 7.9535 8.01662C7.59422 7.66404 7.2116 7.33605 6.80825 7.03487C6.88475 6.90912 6.96675 6.79613 7.055 6.70888C7.58825 6.18388 8.29175 5.84812 8.75325 5.24738C9.72325 3.98588 9.01375 2.00838 8.21575 0.984375C8.07275 1.12212 7.83625 1.32287 7.65825 1.48137C8.5065 2.35012 9.09975 3.87113 8.435 5.00763C8.0635 5.64288 7.377 6.04137 6.897 6.58712C6.814 6.68187 6.73975 6.80187 6.6725 6.93437C5.41725 6.03412 4.26525 5.67188 3.80875 6.12138C3.76342 6.16775 3.72608 6.22131 3.69825 6.27987L3.6965 6.27812L3.68425 6.31388C3.66725 6.35263 3.65175 6.39287 3.64125 6.43687L0.5 15.4844L9.6655 12.2799L9.663 12.2774C9.7615 12.2456 9.84825 12.1989 9.917 12.1314ZM2.32325 14.3174L1.55825 13.9609L2.0745 12.4734L4.44225 13.5764L2.32325 14.3174ZM6.561 12.8356L2.59125 10.9859L3.1075 9.49862L6.074 10.9876C4.30325 9.83512 3.62375 8.01088 3.62375 8.01088L3.80025 7.50262C4.114 8.29637 4.80425 9.28487 5.75275 10.2179C6.70925 11.1594 7.723 11.8414 8.53325 12.1461L6.561 12.8356ZM8.08575 8.15063C8.50025 7.55638 8.9275 6.95662 9.5215 6.52987C10.087 6.12337 11.005 6.04913 11.8753 6.09788C11.5813 6.61137 11.364 7.18113 11.169 7.72837C10.9333 8.39087 10.6173 9.07788 10.0148 9.48413C9.85225 9.59363 9.6245 9.67362 9.38125 9.73287C9.047 9.22062 8.6085 8.67913 8.08575 8.15063Z" fill="black"/>
<path id="Vector_2" d="M5.75823 5.73438C6.00873 5.73438 5.25773 4.98438 5.38323 4.32663C5.86423 4.28963 6.96373 4.50638 6.32373 3.62738C7.04773 3.75488 7.42273 3.21438 6.73923 2.70213C6.96673 2.71813 7.32023 2.28913 7.06648 2.23488C6.25348 2.06263 5.93523 2.50238 6.45123 3.13663C5.90873 3.03563 5.46648 3.28788 5.87398 3.85438C4.30748 3.65913 5.19873 5.73438 5.75823 5.73438Z" fill="black"/>
<path id="Vector_3" d="M11.1365 5.0679C11.3712 4.9619 10.973 4.26165 10.8435 4.08265C11.8342 3.97665 11.7967 3.6814 11.1755 3.0489C12.8645 3.10565 11.2277 2.14565 11.4572 1.76565C11.656 1.43615 12.2657 1.78165 12.2092 1.59815C12.0187 0.984399 10.2117 1.3994 11.3552 2.5454C10.3572 2.5649 10.2615 2.89115 11.0052 3.5674C9.70973 3.58165 10.7667 5.2344 11.1365 5.0679Z" fill="black"/>
<path id="Vector_4" d="M15.4244 7.5406C15.0289 7.65135 14.9679 7.60985 15.0207 8.0036C14.1072 7.5831 13.1407 6.99835 13.7272 8.5476C12.6897 7.92985 12.7414 8.47085 12.5474 9.3611C12.2949 9.16435 11.9362 8.64585 11.9362 8.64585L11.5562 8.9686C11.5562 8.9686 12.2524 9.9506 12.5962 9.89485C12.8984 9.8461 13.0629 9.27485 13.0797 8.77135C14.0422 9.1776 14.5029 9.23185 14.0627 8.04385C14.8322 8.4761 15.7757 8.85735 15.4244 7.5406Z" fill="black"/>
<path id="Vector_5" d="M1.51243 3.09363L2.21943 3.80088L1.51243 4.50788L0.805176 3.80088L1.51243 3.09363Z" fill="black"/>
<path id="Vector_6" d="M3.20577 6.03386L2.49827 6.74086L1.79102 6.03336L2.49852 5.32611L3.20577 6.03386Z" fill="black"/>
<path id="Vector_7" d="M4.30491 1.98438L5.01191 2.69138L4.30466 3.39887L3.59766 2.69138L4.30491 1.98438Z" fill="black"/>
<path id="Vector_8" d="M12.0029 11.8554L11.2954 11.1481L12.0024 10.4406L12.7099 11.1479L12.0029 11.8554Z" fill="black"/>
<path id="Vector_9" d="M10.4262 14.2809L9.71924 13.5739L10.4262 12.8666L11.1335 13.5739L10.4262 14.2809Z" fill="black"/>
<path id="Vector_10" d="M13.5283 14.8394L12.8208 14.1321L13.5276 13.4246L14.2351 14.1319L13.5283 14.8394Z" fill="black"/>
<path id="Vector_11" d="M14.2353 11.6184L13.5283 10.9111L14.2353 10.2041L14.9423 10.9111L14.2353 11.6184Z" fill="black"/>
<path id="Vector_12" d="M13.0549 2.73438L13.7619 3.44138L13.0547 4.14862L12.3477 3.44138L13.0549 2.73438Z" fill="black"/>
</g>
<defs>
<clipPath id="clip0_16_76">
<rect width="16" height="16" fill="white" transform="translate(0 0.234375)"/>
</clipPath>
</defs>
</svg>
