<svg width="16" height="17" viewBox="0 0 16 17" fill="none" xmlns="http://www.w3.org/2000/svg">
<g id="party-fun-dance-enjoy-svgrepo-com 1" clip-path="url(#clip0_16_89)">
<path id="Vector" d="M5.43787 4.61228C5.70287 5.2556 6.43918 5.56228 7.08256 5.29729C7.47956 5.13372 7.74774 4.79053 7.83312 4.4006L8.85655 4.69166L8.99712 4.27866L7.94799 3.57772L8.04968 2.72304C8.06874 2.5626 7.96849 2.4121 7.81312 2.36791L6.47718 1.98797C6.32181 1.94379 6.15731 2.01904 6.08912 2.16547L5.73487 2.92641L4.50774 3.00191L4.36718 3.41485L5.41618 3.71322C5.31637 3.99547 5.31487 4.31366 5.43787 4.61228ZM7.96993 8.45085H6.45274L5.66574 5.60872C5.55193 5.10678 5.10374 4.72435 4.57787 4.72435H1.80087C1.60931 4.72435 1.41781 4.8261 1.31031 4.99366L0.20918 6.91853C0.04168 7.18722 0.149118 7.52472 0.412743 7.68972C0.65293 7.83954 1.00887 7.74791 1.18331 7.49816L2.12331 5.86597H3.57974L1.78699 8.95747C1.57787 9.31816 1.55806 9.75822 1.73399 10.1362L2.63149 12.0647L1.84006 15.0933C1.72943 15.5307 1.98987 15.9694 2.41593 16.0838C2.85337 16.1945 3.29143 15.934 3.40649 15.508L4.24406 12.1937C4.28893 12.0236 4.28324 11.822 4.19349 11.6513L4.11699 11.4895L5.19224 12.109L4.13149 14.9991C3.97724 15.4182 4.17574 15.8967 4.59231 16.0554C5.01518 16.2166 5.48112 16.0042 5.63724 15.5807L6.93374 12.0375C7.09431 11.5995 6.91543 11.1108 6.51087 10.8795L4.21937 9.5716L5.11574 8.00578L5.44287 9.16154C5.51687 9.41466 5.74899 9.58866 6.01268 9.58866H7.96981C8.28637 9.6001 8.52368 9.36053 8.53555 9.05016C8.54643 8.76678 8.27324 8.4786 7.96993 8.45085ZM11.8881 4.00204C12.9395 3.60285 13.5091 2.49929 13.2716 1.43416C13.2685 1.48891 13.2439 1.53397 13.2213 1.58422C13.0792 1.90022 12.6992 2.04447 12.3832 1.90235C12.333 1.87972 12.2859 1.84997 12.2461 1.82341C11.8996 1.5381 11.4091 1.43841 10.9719 1.60441C10.316 1.85341 9.97099 2.59179 10.2259 3.26329C10.4809 3.93472 11.2166 4.25691 11.8881 4.00204ZM15.8716 13.0036C15.8716 13.0036 15.6187 8.95654 14.0068 7.5026C13.9962 7.49303 13.9857 7.48416 13.9752 7.47491V4.57728L15.3136 3.9931C15.655 3.84397 15.838 3.4606 15.7392 3.10128L15.0937 0.754285C15.0151 0.46816 14.7194 0.300035 14.4332 0.37866C14.1471 0.457348 13.9789 0.753098 14.0576 1.03922L14.6296 3.11904L13.4426 3.63716L11.0566 4.69666C10.5909 4.90353 10.2717 5.34716 10.2238 5.85447L10.1052 7.10835L8.71112 6.30941C8.45362 6.16185 8.12531 6.25091 7.97774 6.50841C7.83018 6.76591 7.9193 7.09422 8.17674 7.24179L10.0526 8.31678C10.1633 8.38029 10.2861 8.41216 10.409 8.41216C10.5218 8.41216 10.6347 8.38535 10.7387 8.33153C10.9561 8.21897 11.0996 8.00628 11.1228 7.76241L11.2351 6.57447L11.7943 7.88197C11.7943 7.88197 11.9152 8.73935 10.372 9.8416C8.60199 11.1058 9.20255 13.7292 9.20255 13.7292C9.20255 13.7292 9.73005 13.5454 10.4984 13.4403V15.4043C10.4989 15.7852 10.8215 16.0947 11.1938 16.0997C11.5746 16.0992 11.8837 15.7768 11.8892 15.4043V13.3797C12.1482 13.3944 12.4137 13.4255 12.6802 13.4786L12.664 13.486L13.1895 15.57C13.2831 15.9391 13.6716 16.1604 14.0337 16.0742C14.4029 15.9806 14.6237 15.5925 14.538 15.23L14.1514 13.6968C15.6854 13.7463 15.8716 13.0036 15.8716 13.0036Z" fill="black"/>
</g>
<defs>
<clipPath id="clip0_16_89">
<rect width="16" height="16" fill="white" transform="translate(0 0.234375)"/>
</clipPath>
</defs>
</svg>
