<svg width="16" height="17" viewBox="0 0 16 17" fill="none" xmlns="http://www.w3.org/2000/svg">
<g id="scissors-svgrepo-com 1">
<path id="Vector" d="M4.33317 6.23433C5.25364 6.23433 5.99984 5.48814 5.99984 4.56767C5.99984 3.64719 5.25364 2.901 4.33317 2.901C3.4127 2.901 2.6665 3.64719 2.6665 4.56767C2.6665 5.48814 3.4127 6.23433 4.33317 6.23433Z" stroke="black" stroke-width="2" stroke-linecap="round" stroke-linejoin="round"/>
<path id="Vector_2" d="M4.33317 13.5677C5.25364 13.5677 5.99984 12.8215 5.99984 11.901C5.99984 10.9806 5.25364 10.2344 4.33317 10.2344C3.4127 10.2344 2.6665 10.9806 2.6665 11.901C2.6665 12.8215 3.4127 13.5677 4.33317 13.5677Z" stroke="black" stroke-width="2" stroke-linecap="round" stroke-linejoin="round"/>
<path id="Vector_3" d="M4 10.2343L13.3333 4.41272" stroke="black" stroke-width="2" stroke-linecap="round" stroke-linejoin="round"/>
<path id="Vector_4" fill-rule="evenodd" clip-rule="evenodd" d="M8.46583 8.23404L4.35307 5.66873C4.04067 5.47388 3.62946 5.56916 3.4346 5.88156C3.23974 6.19397 3.33503 6.60518 3.64744 6.80004L7.20616 9.01977L8.46583 8.23404ZM9.72556 9.01977L8.46583 9.80544L12.9808 12.6216C13.2932 12.8164 13.7044 12.7212 13.8992 12.4088C14.0941 12.0964 13.9988 11.6852 13.6864 11.4903L9.72556 9.01977Z" fill="black"/>
</g>
</svg>
