<svg width="32" height="32" viewBox="0 0 32 32" fill="none" xmlns="http://www.w3.org/2000/svg">
<rect width="32" height="32" fill="#F5F5F5"/>
<g id="VALE CHURH SERVICES &#38; FACILITIES" clip-path="url(#clip0_0_1)">
<rect width="1440" height="16205" transform="translate(-312 -1590)" fill="white"/>
<rect id="Rectangle 50" x="-29" y="-253.415" width="385.622" height="469.318" fill="#393939"/>
<g id="Frame 63">
<g id="group 1">
<path id="Vector" d="M1.33398 26.6667V25.3333C1.33398 22.858 2.31731 20.484 4.06765 18.7337C5.81799 16.9833 8.19196 16 10.6673 16C13.1427 16 15.5166 16.9833 17.267 18.7337C19.0173 20.484 20.0007 22.858 20.0007 25.3333V26.6667" stroke="white" stroke-width="2.66667" stroke-linecap="round"/>
<path id="Vector_2" d="M17.334 18.6667C17.334 16.8986 18.0364 15.2029 19.2866 13.9526C20.5368 12.7024 22.2325 12 24.0007 12C24.8761 12 25.743 12.1724 26.5519 12.5075C27.3607 12.8425 28.0956 13.3336 28.7147 13.9526C29.3338 14.5717 29.8248 15.3066 30.1598 16.1154C30.4949 16.9243 30.6673 17.7912 30.6673 18.6667V19.3333" stroke="white" stroke-width="2.66667" stroke-linecap="round"/>
<path id="Vector_3" d="M10.6673 16C12.0818 16 13.4384 15.4381 14.4386 14.4379C15.4387 13.4377 16.0007 12.0812 16.0007 10.6667C16.0007 9.25218 15.4387 7.89562 14.4386 6.89543C13.4384 5.89524 12.0818 5.33333 10.6673 5.33333C9.25283 5.33333 7.89628 5.89524 6.89608 6.89543C5.89589 7.89562 5.33398 9.25218 5.33398 10.6667C5.33398 12.0812 5.89589 13.4377 6.89608 14.4379C7.89628 15.4381 9.25283 16 10.6673 16ZM24.0007 12C25.0615 12 26.0789 11.5786 26.8291 10.8284C27.5792 10.0783 28.0007 9.06087 28.0007 8C28.0007 6.93913 27.5792 5.92172 26.8291 5.17157C26.0789 4.42143 25.0615 4 24.0007 4C22.9398 4 21.9224 4.42143 21.1722 5.17157C20.4221 5.92172 20.0007 6.93913 20.0007 8C20.0007 9.06087 20.4221 10.0783 21.1722 10.8284C21.9224 11.5786 22.9398 12 24.0007 12Z" stroke="white" stroke-width="2.66667" stroke-linecap="round" stroke-linejoin="round"/>
</g>
</g>
</g>
<defs>
<clipPath id="clip0_0_1">
<rect width="1440" height="16205" fill="white" transform="translate(-312 -1590)"/>
</clipPath>
</defs>
</svg>
