<svg width="32" height="32" viewBox="0 0 32 32" fill="none" xmlns="http://www.w3.org/2000/svg">
<g id="church-svgrepo-com 1">
<path id="Vector" fill-rule="evenodd" clip-rule="evenodd" d="M15.9999 2.66699C16.7363 2.66699 17.3332 3.26395 17.3332 4.00033V5.33366H18.6665C19.4029 5.33366 19.9999 5.93062 19.9999 6.66699C19.9999 7.40337 19.4029 8.00033 18.6665 8.00033H17.3332V9.23773L28.0092 15.5178C28.644 15.8911 28.8559 16.7083 28.4824 17.343C28.1109 17.9746 27.2999 18.1875 26.6665 17.8217V26.667C26.6665 28.1398 25.4727 29.3337 23.9999 29.3337H19.9999H18.6665H13.3332H11.9999H7.99988C6.52712 29.3337 5.33322 28.1398 5.33322 26.667V17.8217C4.69986 18.1875 3.88883 17.9746 3.51731 17.343C3.14395 16.7083 3.35582 15.8911 3.99052 15.5178L14.6665 9.23774V8.00033H13.3332C12.5968 8.00033 11.9999 7.40337 11.9999 6.66699C11.9999 5.93062 12.5968 5.33366 13.3332 5.33366H14.6665V4.00033C14.6665 3.26395 15.2635 2.66699 15.9999 2.66699ZM14.6665 26.667H17.3332V22.667C17.3332 21.9306 16.7363 21.3337 15.9999 21.3337C15.2635 21.3337 14.6665 21.9306 14.6665 22.667V26.667ZM19.9999 26.667V22.667C19.9999 20.4578 18.2091 18.667 15.9999 18.667C13.7907 18.667 11.9999 20.4578 11.9999 22.667V26.667H7.99988V16.2531L15.9999 11.5472L23.9999 16.2531V26.667H19.9999Z" fill="white"/>
</g>
</svg>
