<svg width="16" height="17" viewBox="0 0 16 17" fill="none" xmlns="http://www.w3.org/2000/svg">
<path d="M3 14.2316C2.99956 14.0275 2.9353 13.8286 2.81622 13.6628C2.69713 13.497 2.52918 13.3726 2.33588 13.307C2.50718 13.1831 2.63483 13.0082 2.70051 12.8073C2.76619 12.6064 2.76651 12.3898 2.70142 12.1887C2.63634 11.9876 2.5092 11.8123 2.33826 11.6879C2.16733 11.5636 1.96138 11.4966 1.75 11.4966C1.53862 11.4966 1.33268 11.5636 1.16174 11.6879C0.990803 11.8123 0.863665 11.9876 0.798582 12.1887C0.733499 12.3898 0.733818 12.6064 0.799494 12.8073C0.86517 13.0082 0.992824 13.1831 1.16413 13.307C0.970822 13.3726 0.802871 13.497 0.683784 13.6628C0.564698 13.8286 0.500438 14.0275 0.5 14.2316V15.9999H3V14.2316Z" fill="black"/>
<path d="M4.5 14.2316V15.9999H7V14.2316C6.99956 14.0275 6.9353 13.8286 6.81622 13.6628C6.69713 13.497 6.52918 13.3726 6.33588 13.307C6.50718 13.1831 6.63484 13.0082 6.70051 12.8073C6.76619 12.6064 6.76651 12.3898 6.70142 12.1887C6.63634 11.9876 6.5092 11.8123 6.33826 11.6879C6.16733 11.5636 5.96138 11.4966 5.75 11.4966C5.53862 11.4966 5.33268 11.5636 5.16174 11.6879C4.9908 11.8123 4.86367 11.9876 4.79858 12.1887C4.7335 12.3898 4.73382 12.6064 4.79949 12.8073C4.86517 13.0082 4.99282 13.1831 5.16413 13.307C4.97082 13.3726 4.80287 13.497 4.68378 13.6628C4.5647 13.8286 4.50044 14.0275 4.5 14.2316Z" fill="black"/>
<path d="M11.5 14.2316C11.4996 14.0275 11.4353 13.8286 11.3162 13.6628C11.1971 13.497 11.0292 13.3726 10.8359 13.307C11.0072 13.1831 11.1348 13.0082 11.2005 12.8073C11.2662 12.6064 11.2665 12.3898 11.2014 12.1887C11.1363 11.9876 11.0092 11.8123 10.8383 11.6879C10.6673 11.5636 10.4614 11.4966 10.25 11.4966C10.0386 11.4966 9.83268 11.5636 9.66174 11.6879C9.4908 11.8123 9.36367 11.9876 9.29858 12.1887C9.2335 12.3898 9.23382 12.6064 9.29949 12.8073C9.36517 13.0082 9.49282 13.1831 9.66413 13.307C9.47082 13.3726 9.30287 13.497 9.18378 13.6628C9.0647 13.8286 9.00044 14.0275 9 14.2316V15.9999H11.5V14.2316Z" fill="black"/>
<path d="M15.5 14.2316C15.4996 14.0275 15.4353 13.8286 15.3162 13.6628C15.1971 13.497 15.0292 13.3726 14.8359 13.307C15.0072 13.1831 15.1348 13.0082 15.2005 12.8073C15.2662 12.6064 15.2665 12.3898 15.2014 12.1887C15.1363 11.9876 15.0092 11.8123 14.8383 11.6879C14.6673 11.5636 14.4614 11.4966 14.25 11.4966C14.0386 11.4966 13.8327 11.5636 13.6617 11.6879C13.4908 11.8123 13.3637 11.9876 13.2986 12.1887C13.2335 12.3898 13.2338 12.6064 13.2995 12.8073C13.3652 13.0082 13.4928 13.1831 13.6641 13.307C13.4708 13.3726 13.3029 13.497 13.1838 13.6628C13.0647 13.8286 13.0004 14.0275 13 14.2316V15.9999H15.5V14.2316Z" fill="black"/>
<path d="M12.25 8.125C12.1506 8.12489 12.0553 8.08535 11.985 8.01505C11.9147 7.94474 11.8751 7.84942 11.875 7.75H11.625C11.625 7.91576 11.6908 8.07473 11.8081 8.19194C11.9253 8.30915 12.0842 8.375 12.25 8.375C12.4158 8.375 12.5747 8.30915 12.6919 8.19194C12.8092 8.07473 12.875 7.91576 12.875 7.75H12.625C12.6249 7.84942 12.5853 7.94474 12.515 8.01505C12.4447 8.08535 12.3494 8.12489 12.25 8.125Z" fill="black"/>
<path d="M11.625 7C11.7631 7 11.875 6.88807 11.875 6.75C11.875 6.61193 11.7631 6.5 11.625 6.5C11.4869 6.5 11.375 6.61193 11.375 6.75C11.375 6.88807 11.4869 7 11.625 7Z" fill="black"/>
<path d="M8.5 4.5L7.75 3.5L7 4.5L7.75 5.5L8.5 4.5Z" fill="black"/>
<path d="M15.25 7.35086V3.64914C15.25 3.30125 15.1815 2.95677 15.0483 2.63536C14.9152 2.31395 14.7201 2.02191 14.4741 1.77591C14.2281 1.52992 13.9361 1.33478 13.6146 1.20165C13.2932 1.06852 12.9487 1 12.6009 1H3.39914C3.05125 1 2.70677 1.06852 2.38536 1.20165C2.06395 1.33478 1.77191 1.52992 1.52591 1.77591C1.27992 2.02191 1.08478 2.31395 0.951653 2.63536C0.818521 2.95677 0.75 3.30125 0.75 3.64914V7.35086C0.750001 8.05346 1.02911 8.72727 1.52592 9.22408C2.02273 9.72089 2.69654 10 3.39914 10H12.6009C13.3035 10 13.9773 9.72089 14.4741 9.22408C14.9709 8.72727 15.25 8.05346 15.25 7.35086ZM10.9761 2.21811C11.1234 2.07808 11.3189 2 11.5221 2C11.7253 2 11.9207 2.07808 12.068 2.21811L12.25 2.39365L12.432 2.21811C12.5793 2.07808 12.7747 2 12.9779 2C13.1811 2 13.3766 2.07808 13.5239 2.21811C13.5953 2.28595 13.6522 2.36762 13.6911 2.45815C13.73 2.54868 13.75 2.64617 13.75 2.7447C13.75 2.84322 13.73 2.94071 13.6911 3.03124C13.6522 3.12177 13.5953 3.20344 13.5239 3.27129L12.25 4.5L10.9761 3.27129C10.9047 3.20344 10.8478 3.12177 10.8089 3.03124C10.77 2.94071 10.75 2.84322 10.75 2.7447C10.75 2.64617 10.77 2.54868 10.8089 2.45815C10.8478 2.36762 10.9047 2.28595 10.9761 2.21811ZM3.3692 2.00661C3.36562 2.11258 3.36377 2.21373 3.36377 2.25366C3.36582 2.67831 3.53117 3.08589 3.82554 3.39195C4.11992 3.698 4.52076 3.87908 4.945 3.89764C4.86298 4.19549 4.69093 4.46072 4.45239 4.65703C4.21385 4.85334 3.92048 4.97114 3.61242 4.99432C3.64706 4.86246 3.66563 4.72689 3.66772 4.59057C3.66721 4.16713 3.50994 3.75888 3.22624 3.44453C2.94254 3.13019 2.5525 2.93201 2.13133 2.88822C2.2404 2.6443 2.41267 2.43397 2.6303 2.27897C2.84794 2.12397 3.10304 2.02994 3.3692 2.00661ZM2.04778 3.13043C2.41881 3.15445 2.76682 3.3187 3.02122 3.58985C3.27563 3.861 3.41738 4.21876 3.41773 4.59058C3.41599 4.72688 3.39501 4.86225 3.35541 4.99269C3.13993 4.97263 2.93138 4.906 2.7442 4.7974C2.55701 4.6888 2.39565 4.54082 2.27129 4.36371C2.14693 4.18661 2.06253 3.98459 2.02394 3.77165C1.98535 3.55871 1.99348 3.33992 2.04778 3.13043ZM5 7.75H4.25L4.5 9L3 7.75H2V6H5V7.75ZM4.9905 3.66486L4.99073 3.65039C4.62428 3.64349 4.27506 3.49351 4.01775 3.2325C3.76044 2.97149 3.61545 2.62018 3.61378 2.25366C3.61378 2.21802 3.6155 2.11278 3.61901 2.00601C3.81934 2.02131 4.01453 2.07684 4.19292 2.16927C4.3713 2.26171 4.52923 2.38916 4.65725 2.544C4.78527 2.69885 4.88076 2.87791 4.93802 3.07049C4.99528 3.26307 5.01313 3.46522 4.9905 3.66486ZM9.5 6.75H6V2.25H9.5V6.75ZM10.5 7.25C10.5 6.90388 10.6026 6.56554 10.7949 6.27775C10.9872 5.98997 11.2605 5.76566 11.5803 5.63321C11.9001 5.50076 12.2519 5.4661 12.5914 5.53363C12.9309 5.60115 13.2427 5.76782 13.4874 6.01256C13.7322 6.25731 13.8989 6.56912 13.9664 6.90859C14.0339 7.24806 13.9992 7.59993 13.8668 7.9197C13.7343 8.23947 13.51 8.51278 13.2222 8.70507C12.9345 8.89736 12.5961 9 12.25 9C11.7859 9 11.3408 8.81563 11.0126 8.48744C10.6844 8.15925 10.5 7.71413 10.5 7.25Z" fill="black"/>
<path d="M12.875 7C13.0131 7 13.125 6.88807 13.125 6.75C13.125 6.61193 13.0131 6.5 12.875 6.5C12.7369 6.5 12.625 6.61193 12.625 6.75C12.625 6.88807 12.7369 7 12.875 7Z" fill="black"/>
</svg>
