<svg width="149" height="55" viewBox="0 0 149 55" fill="none" xmlns="http://www.w3.org/2000/svg">
<g clip-path="url(#clip0_186_791)">
<path d="M8.33754 1.84521V35.9298H0V1.84521H8.33754Z" fill="#030303"/>
<path d="M19.1118 35.1043C17.2588 34.2954 15.7961 33.186 14.7237 31.7792C13.6513 30.3708 13.0492 28.7929 12.9191 27.0457H21.1582C21.255 27.9857 21.6953 28.7448 22.4742 29.3277C23.2547 29.9107 24.2121 30.2014 25.3512 30.2014C26.3903 30.2014 27.1958 29.9987 27.7646 29.5951C28.3333 29.1915 28.6185 28.665 28.6185 28.0173C28.6185 27.24 28.2115 26.6653 27.3993 26.2933C26.5871 25.9213 25.2695 25.5094 23.4499 25.056C21.5002 24.6025 19.874 24.1259 18.5748 23.6243C17.2738 23.1227 16.1531 22.3305 15.2107 21.2459C14.2667 20.1613 13.7964 18.6964 13.7964 16.8512C13.7964 15.2983 14.2267 13.8816 15.089 12.6027C15.9496 11.3238 17.2171 10.3123 18.8916 9.56826C20.5662 8.82419 22.5559 8.45215 24.8642 8.45215C28.2766 8.45215 30.9668 9.29421 32.9332 10.9767C34.8996 12.6608 36.0287 14.893 36.3223 17.6767H28.6185C28.4884 16.7383 28.0731 15.9942 27.376 15.4428C26.6771 14.893 25.7582 14.6173 24.6207 14.6173C23.645 14.6173 22.8978 14.8033 22.3774 15.1754C21.8571 15.5474 21.5969 16.0573 21.5969 16.7051C21.5969 17.4823 22.0105 18.0653 22.8394 18.4523C23.6683 18.8409 24.9609 19.2296 26.7155 19.6182C28.7302 20.1364 30.3714 20.6463 31.6406 21.1479C32.9082 21.6495 34.0206 22.4583 34.9796 23.5761C35.9387 24.6922 36.434 26.1903 36.4674 28.0671C36.4674 29.6533 36.0204 31.07 35.1264 32.3157C34.2325 33.5613 32.9482 34.5412 31.2754 35.2537C29.6009 35.9646 27.6595 36.3217 25.4496 36.3217C23.0763 36.3217 20.9648 35.9181 19.1118 35.1076V35.1043Z" fill="#030303"/>
<path d="M49.9269 0V35.9298H41.5893V0H49.9269Z" fill="#030303"/>
<path d="M55.8994 15.0026C56.9551 12.8982 58.3928 11.2805 60.2141 10.1478C62.0337 9.01509 64.0651 8.44873 66.3084 8.44873C68.2264 8.44873 69.9076 8.83738 71.3553 9.61467C72.8013 10.392 73.9154 11.4117 74.6943 12.674V8.83904H83.0318V35.9313H74.6943V32.0963C73.8821 33.3586 72.7513 34.3784 71.3053 35.1557C69.8592 35.933 68.1764 36.3216 66.2584 36.3216C64.0468 36.3216 62.032 35.7469 60.2124 34.5976C58.3911 33.4483 56.9535 31.814 55.8977 29.693C54.8403 27.5738 54.3133 25.1206 54.3133 22.337C54.3133 19.5534 54.842 17.1102 55.8977 15.0059L55.8994 15.0026ZM72.9648 17.4789C71.8106 16.2814 70.4046 15.6819 68.7468 15.6819C67.0889 15.6819 65.683 16.2731 64.5288 17.454C63.3747 18.6366 62.7976 20.2626 62.7976 22.3337C62.7976 24.4048 63.3747 26.0474 64.5288 27.2615C65.683 28.4756 67.0889 29.0818 68.7468 29.0818C70.4046 29.0818 71.8106 28.4839 72.9648 27.2848C74.1189 26.0873 74.696 24.453 74.696 22.3802C74.696 20.3074 74.1189 18.6748 72.9648 17.4756V17.4789Z" fill="#030303"/>
<path d="M113.287 11.628C115.188 13.6842 116.139 16.5077 116.139 20.1001V35.9283H107.849V21.2163C107.849 19.4042 107.377 17.9958 106.435 16.9926C105.493 15.9895 104.223 15.4879 102.632 15.4879C101.041 15.4879 99.772 15.9895 98.8296 16.9926C97.8873 17.9958 97.4153 19.4042 97.4153 21.2163V35.9283H89.0778V8.83772H97.4153V12.4302C98.2609 11.2327 99.3984 10.286 100.828 9.5901C102.257 8.89419 103.867 8.54541 105.654 8.54541C108.84 8.54541 111.383 9.57349 113.285 11.628H113.287Z" fill="#030303"/>
<path d="M121.868 15.0027C122.923 12.8984 124.361 11.2807 126.182 10.148C128.002 9.01525 130.033 8.44889 132.277 8.44889C134.064 8.44889 135.697 8.82093 137.177 9.565C138.656 10.3107 139.817 11.3122 140.662 12.5745V0H149V35.9298H140.662V32.045C139.882 33.3405 138.768 34.3752 137.323 35.1525C135.877 35.9298 134.195 36.3184 132.277 36.3184C130.033 36.3184 128.002 35.7438 126.182 34.5944C124.361 33.4451 122.923 31.8108 121.868 29.6899C120.81 27.5706 120.283 25.1175 120.283 22.3338C120.283 19.5502 120.812 17.1071 121.868 15.0027ZM138.933 17.4791C137.779 16.2816 136.373 15.682 134.715 15.682C133.057 15.682 131.651 16.2733 130.497 17.4542C129.343 18.6367 128.766 20.2627 128.766 22.3338C128.766 24.405 129.343 26.0476 130.497 27.2617C131.651 28.4758 133.057 29.082 134.715 29.082C136.373 29.082 137.779 28.4841 138.933 27.2849C140.087 26.0874 140.664 24.4531 140.664 22.3803C140.664 20.3076 140.087 18.6749 138.933 17.4758V17.4791Z" fill="#030303"/>
<path d="M16.7802 42.4238L13.2227 54.8754H11.4264L8.57438 44.8537L5.61563 54.8754L3.83771 54.8937L0.405289 42.4238H2.11316L4.79005 52.982L7.7488 42.4238H9.54506L12.362 52.9455L15.0556 42.4238H16.7818H16.7802Z" fill="#030303"/>
<path d="M25.2495 43.7441V47.9063H29.7226V49.2466H25.2495V53.5334H30.2497V54.8737H23.6467V42.4038H30.2497V43.7441H25.2495Z" fill="#030303"/>
<path d="M45.1552 49.0142C45.5254 49.3115 45.819 49.6819 46.0358 50.122C46.2526 50.5621 46.361 51.0338 46.361 51.5337C46.361 52.1649 46.2026 52.7329 45.8857 53.2395C45.5688 53.746 45.1085 54.1447 44.503 54.437C43.8976 54.7293 43.1854 54.8754 42.3632 54.8754H37.785V42.4238H42.1864C43.0203 42.4238 43.7292 42.5633 44.3162 42.844C44.9033 43.1247 45.3436 43.5017 45.6372 43.9784C45.9307 44.4551 46.0775 44.9915 46.0775 45.5861C46.0775 46.3252 45.8807 46.9348 45.4871 47.4164C45.0935 47.8981 44.5748 48.2469 43.9293 48.4611C44.3746 48.5325 44.7832 48.7169 45.1535 49.0142H45.1552ZM39.3894 47.8001H42.083C42.8335 47.8001 43.4156 47.6207 43.8259 47.2636C44.2362 46.9065 44.4413 46.4116 44.4413 45.7805C44.4413 45.1493 44.2362 44.6544 43.8259 44.2973C43.4156 43.9402 42.8218 43.7608 42.048 43.7608H39.3894V47.7984V47.8001ZM44.0911 52.9638C44.5364 52.5834 44.7599 52.0519 44.7599 51.3743C44.7599 50.6967 44.5247 50.1386 44.056 49.74C43.5857 49.3414 42.9586 49.1421 42.1714 49.1421H39.3894V53.5368H42.2248C43.0237 53.5368 43.6458 53.3458 44.0911 52.9654V52.9638Z" fill="#030303"/>
<path d="M70.7916 43.1829C71.7722 43.6894 72.5228 44.4136 73.0448 45.3536C73.5668 46.2953 73.8287 47.4015 73.8287 48.677C73.8287 49.9526 73.5668 51.0554 73.0448 51.9905C72.5228 52.9256 71.7706 53.6397 70.7916 54.1347C69.8109 54.6296 68.6517 54.8754 67.3141 54.8754H63.4931V42.4238H67.3141C68.6517 42.4238 69.8109 42.6763 70.7916 43.1829ZM70.9417 52.2579C71.7756 51.4059 72.1925 50.2117 72.1925 48.6754C72.1925 47.1391 71.7722 45.9183 70.9333 45.0497C70.0944 44.181 68.8885 43.7459 67.3158 43.7459H65.0975V53.5351H67.3158C68.9002 53.5351 70.1094 53.1099 70.9433 52.2579H70.9417Z" fill="#030303"/>
<path d="M82.6499 43.7441V47.9063H87.1231V49.2466H82.6499V53.5334H87.6501V54.8737H81.0471V42.4038H87.6501V43.7441H82.6499Z" fill="#030303"/>
<path d="M96.9033 54.5615C96.2628 54.2692 95.7608 53.8656 95.3972 53.3474C95.0336 52.8292 94.8452 52.2313 94.8335 51.552H96.5414C96.5997 52.135 96.8382 52.6266 97.2552 53.0252C97.6722 53.4238 98.2793 53.6231 99.0782 53.6231C99.8771 53.6231 100.442 53.4304 100.883 53.0418C101.323 52.6548 101.543 52.1582 101.543 51.5503C101.543 51.0737 101.415 50.6867 101.156 50.3894C100.898 50.0921 100.576 49.8662 100.187 49.7101C99.8003 49.5556 99.2766 49.3879 98.6195 49.2102C97.8089 48.9959 97.1601 48.7816 96.6731 48.5674C96.1861 48.3531 95.7692 48.016 95.4222 47.5576C95.0753 47.0992 94.9036 46.483 94.9036 45.709C94.9036 45.0297 95.0737 44.4285 95.4139 43.9053C95.7542 43.3821 96.2328 42.9769 96.8483 42.6912C97.4654 42.4055 98.1709 42.2627 98.9698 42.2627C100.121 42.2627 101.061 42.555 101.795 43.138C102.529 43.7209 102.943 44.4949 103.036 45.4599H101.275C101.216 44.9832 100.969 44.5647 100.536 44.2009C100.102 43.8372 99.5268 43.6562 98.8096 43.6562C98.1408 43.6562 97.5954 43.8322 97.1718 44.1827C96.7498 44.5348 96.538 45.0247 96.538 45.6559C96.538 46.1093 96.6648 46.478 96.9166 46.7637C97.1685 47.0493 97.4804 47.2669 97.8506 47.4164C98.2209 47.5659 98.7396 47.7353 99.4084 47.9263C100.219 48.1522 100.869 48.3764 101.363 48.5956C101.857 48.8165 102.279 49.1553 102.631 49.6137C102.983 50.0721 103.159 50.695 103.159 51.4806C103.159 52.0885 103.001 52.6598 102.684 53.1963C102.367 53.7327 101.897 54.1679 101.275 54.5001C100.653 54.8339 99.9188 55 99.0732 55C98.2276 55 97.5387 54.8538 96.8983 54.5615H96.9033Z" fill="#030303"/>
<path d="M112.231 42.4238V54.8754H110.628V42.4238H112.231Z" fill="#030303"/>
<path d="M129.363 46.0312C129.023 45.3054 128.529 44.7424 127.883 44.3438C127.238 43.9452 126.486 43.7459 125.63 43.7459C124.775 43.7459 124.001 43.9452 123.315 44.3438C122.628 44.7424 122.088 45.3154 121.696 46.0595C121.302 46.8035 121.105 47.6639 121.105 48.6405C121.105 49.6171 121.302 50.4741 121.696 51.2132C122.089 51.9523 122.63 52.5203 123.315 52.9189C124.002 53.3175 124.773 53.5168 125.63 53.5168C126.828 53.5168 127.813 53.1531 128.589 52.4273C129.364 51.7015 129.815 50.7182 129.945 49.4792H125.05V48.1571H131.653V49.4078C131.559 50.4326 131.242 51.3693 130.702 52.2213C130.162 53.0733 129.451 53.746 128.572 54.2393C127.692 54.7342 126.711 54.98 125.632 54.98C124.493 54.98 123.454 54.7093 122.515 54.1679C121.576 53.6264 120.833 52.8724 120.288 51.9074C119.743 50.9424 119.469 49.8529 119.469 48.6388C119.469 47.4247 119.743 46.3318 120.288 45.3602C120.833 44.3903 121.576 43.6329 122.515 43.0915C123.454 42.55 124.493 42.2793 125.632 42.2793C126.934 42.2793 128.089 42.6065 129.091 43.2625C130.095 43.9169 130.826 44.8404 131.283 46.0312H129.363Z" fill="#030303"/>
<path d="M148.52 54.8756H146.917L140.472 44.9602V54.8756H138.87V42.4058H140.472L146.917 52.3029V42.4058H148.52V54.8756Z" fill="#030303"/>
</g>
<defs>
<clipPath id="clip0_186_791">
<rect width="149" height="55" fill="white"/>
</clipPath>
</defs>
</svg>
