<svg width="16" height="17" viewBox="0 0 16 17" fill="none" xmlns="http://www.w3.org/2000/svg">
<g clip-path="url(#clip0_228_403)">
<path d="M8.00239 5.8071C8.57511 5.8071 9.04027 5.14282 9.04027 4.56994C9.04027 3.99682 8.57511 3.53174 8.00239 3.53174C7.42943 3.53174 6.96484 3.99641 6.96484 4.56994C6.96484 5.1429 7.42951 5.8071 8.00239 5.8071Z" fill="black"/>
<path d="M6.77084 7.77035L6.77165 6.92841C6.79834 6.92058 6.82576 6.91242 6.85448 6.90409V7.77043H7.736L7.95201 6.08982H7.94842L7.85123 5.89404C7.09033 5.9315 6.2603 6.22945 6.22236 6.24348C6.21836 6.24438 6.21705 6.24773 6.21322 6.24862C6.18408 6.26046 6.15993 6.27923 6.13414 6.2971C6.11545 6.30975 6.09399 6.31897 6.07832 6.33456C6.05922 6.35333 6.04682 6.37699 6.03083 6.39952C6.01679 6.42057 5.99884 6.43885 5.9888 6.46211C5.97925 6.48357 5.97737 6.50789 5.97101 6.53074C5.96358 6.55947 5.95395 6.58786 5.95354 6.61798C5.95354 6.62181 5.95126 6.62491 5.95126 6.62867L5.94922 7.78267C5.98847 7.77614 6.02772 7.77035 6.06836 7.77035H6.77084Z" fill="black"/>
<path d="M9.33494 6.30934L9.41312 6.27833L9.48313 6.14613C9.16609 6.05146 8.64789 5.91836 8.15441 5.89404L8.05738 6.08982H8.05469L8.26997 7.77018H8.62161L8.94747 7.15617L8.92959 7.07424C8.85892 6.75189 9.02973 6.43053 9.33494 6.30934Z" fill="black"/>
<path d="M13.4487 5.34645C14.0629 5.34645 14.5609 4.63443 14.5609 4.02132C14.5609 3.40771 14.0629 2.90967 13.4487 2.90967C12.8356 2.90967 12.3379 3.40714 12.3379 4.02132C12.3379 4.63451 12.8357 5.34645 13.4487 5.34645Z" fill="black"/>
<path d="M15.5609 8.1461C15.539 8.1461 15.5203 8.15524 15.4997 8.15843L15.5363 8.11787C15.6087 8.03675 15.649 7.93197 15.649 7.82327L15.6452 6.22687C15.6452 6.22288 15.643 6.21977 15.643 6.21594C15.6421 6.18354 15.6319 6.15343 15.6244 6.12225C15.6178 6.09761 15.6159 6.07198 15.6053 6.04873C15.5947 6.02359 15.5757 6.00392 15.56 5.98148C15.5436 5.95765 15.5302 5.93195 15.5096 5.91187C15.4926 5.89547 15.47 5.88543 15.4499 5.87205C15.4221 5.85279 15.3969 5.83279 15.3649 5.82047C15.3614 5.81908 15.3592 5.81582 15.3554 5.81492C15.315 5.8004 14.426 5.48115 13.611 5.44092L13.5067 5.65032H13.5033L13.7994 7.95547L13.4472 8.56956L13.0959 7.95547L13.3908 5.65032H13.3882L13.2841 5.44133C12.4978 5.47976 11.6453 5.77698 11.5488 5.81133L9.80873 6.39164L9.91351 6.19537C9.93587 6.15253 9.92028 6.0994 9.87695 6.07704C9.835 6.05403 9.78139 6.07011 9.75772 6.11319L9.56709 6.47235L9.44019 6.51462C9.20973 6.59141 9.08553 6.84015 9.16248 7.07053C9.17317 7.10154 9.19031 7.12724 9.20622 7.15425L8.88135 7.76818C8.85882 7.81135 8.87449 7.86423 8.91774 7.88716C8.9308 7.89386 8.94451 7.89728 8.95904 7.89728C8.98964 7.89728 9.02049 7.88031 9.03648 7.8506L9.3332 7.29176C9.40534 7.34146 9.49201 7.36986 9.58129 7.36986C9.62772 7.36986 9.67424 7.36268 9.72067 7.3475L11.8297 6.64421C11.8317 6.64372 11.8328 6.64193 11.8344 6.64103C11.8374 6.64062 11.8383 6.64103 11.84 6.64062C11.8447 6.63923 11.9954 6.5857 12.2189 6.52205V9.39444L11.0704 9.62482C10.8349 9.67272 10.6605 9.87315 10.6478 10.1133L10.4611 13.5331C10.4451 13.8241 10.6683 14.0729 10.9595 14.0885C10.9688 14.089 10.9782 14.0894 10.988 14.0894C11.2658 14.0894 11.499 13.8715 11.514 13.5912L11.6786 10.5787L12.1294 10.4876V13.5617C12.1294 13.8047 12.3263 14.0011 12.5693 14.0011H15.5609C15.8027 14.0011 16.0002 13.8041 16.0002 13.5617V10.0938V9.74192V8.58515C16.0003 8.34286 15.8034 8.1461 15.5609 8.1461ZM14.679 6.52229C14.7094 6.53143 14.7388 6.54008 14.767 6.5484L14.7689 7.65589L14.6789 7.75651V6.52229H14.679ZM15.1217 13.123H13.0089V10.7942L15.1217 10.2977V13.123ZM15.1217 8.58556V9.39469L14.6789 9.49865V9.07136L15.1232 8.57748C15.1233 8.58025 15.1217 8.58246 15.1217 8.58556Z" fill="black"/>
<path d="M2.55322 5.34645C3.16633 5.34645 3.66438 4.63443 3.66438 4.02132C3.66438 3.40771 3.16633 2.90967 2.55322 2.90967C1.93921 2.90967 1.44141 3.40714 1.44141 4.02132C1.44141 4.63451 1.93921 5.34645 2.55322 5.34645Z" fill="black"/>
<path d="M4.93077 9.6249L3.78256 9.39453V6.52213C3.81381 6.53127 3.84295 6.53951 3.8702 6.54775V8.33666C3.8702 8.50322 3.96454 8.655 4.11315 8.73008L4.81652 9.08148C4.87952 9.11233 4.94668 9.12841 5.01254 9.12841C5.17395 9.12841 5.32917 9.03954 5.40605 8.88457C5.51426 8.66749 5.42694 8.40406 5.2088 8.29487L4.74927 8.06531V6.22736C4.74927 6.22312 4.74682 6.22002 4.74682 6.21529C4.74601 6.18297 4.73548 6.15237 4.72773 6.12111C4.72144 6.09696 4.71916 6.07133 4.70961 6.04856C4.69835 6.02286 4.67885 6.00229 4.66334 5.98001C4.64677 5.95659 4.63364 5.93138 4.61291 5.91179C4.59577 5.89482 4.57325 5.88494 4.55227 5.87066C4.52526 5.85238 4.50013 5.83222 4.46855 5.81998C4.46544 5.81843 4.46267 5.81525 4.459 5.81443C4.41877 5.79991 3.5295 5.48074 2.71408 5.44043L2.60979 5.64983H2.60701L2.90251 7.95498L2.55078 8.56891L2.19873 7.95498L2.49456 5.64983H2.49129L2.38667 5.44043C1.57167 5.48066 0.682315 5.79966 0.642654 5.81443C0.638329 5.81533 0.636533 5.81843 0.632943 5.81998C0.601279 5.83222 0.57541 5.85279 0.547908 5.87156C0.52767 5.88535 0.504738 5.89482 0.487846 5.91122C0.467281 5.93138 0.454142 5.95708 0.437576 5.98091C0.422152 6.00319 0.403301 6.02286 0.392202 6.04816C0.381757 6.07092 0.37988 6.09663 0.373025 6.1216C0.365435 6.15286 0.355479 6.18256 0.354337 6.21537C0.354337 6.21912 0.352052 6.22271 0.352052 6.2263L0.351562 7.8231C0.351154 7.9318 0.391305 8.03659 0.464098 8.11771L0.50074 8.15826C0.480338 8.15508 0.461487 8.14594 0.439371 8.14594C0.197162 8.14594 0 8.3431 0 8.58539V9.74307V10.0944V13.5623C0 13.8052 0.197162 14.0022 0.439371 14.0022H3.43083C3.67378 14.0022 3.8702 13.8048 3.8702 13.5623V10.4882L4.32165 10.5788L4.48576 13.5912C4.50143 13.8726 4.73418 14.0899 5.01213 14.0899C5.02168 14.0899 5.03122 14.0899 5.04094 14.0891C5.33178 14.073 5.5549 13.8247 5.53906 13.534L5.35235 10.1144C5.34051 9.87323 5.16612 9.67281 4.93077 9.6249ZM1.23341 6.54824C1.26164 6.53992 1.29094 6.53127 1.32162 6.52213V7.75635L1.23137 7.65573L1.23341 6.54824ZM1.32195 9.0712V9.49849L0.879232 9.39453V8.58539C0.879232 8.58278 0.877518 8.58009 0.877518 8.57732L1.32195 9.0712ZM2.99187 13.1228H0.879232V10.2975L2.99179 10.794L2.99187 13.1228Z" fill="black"/>
<path d="M9.93546 7.99902H6.06811C5.77702 7.99902 5.54102 8.23479 5.54102 8.52612C5.54102 8.81721 5.77751 9.05306 6.06811 9.05306H6.16604V13.5614C6.16604 13.8045 6.36263 14.0009 6.60558 14.0009H9.3989C9.64127 14.0009 9.83819 13.8039 9.83819 13.5614V9.05306H9.93546C10.2268 9.05306 10.4624 8.81721 10.4624 8.52612C10.4631 8.23479 10.2268 7.99902 9.93546 7.99902Z" fill="black"/>
</g>
<defs>
<clipPath id="clip0_228_403">
<rect width="16" height="16" fill="white" transform="translate(0 0.5)"/>
</clipPath>
</defs>
</svg>
