<svg width="33" height="32" viewBox="0 0 33 32" fill="none" xmlns="http://www.w3.org/2000/svg">
<path d="M16.5885 7.99984L6.29788 14.4318C6.18297 14.5037 6.08819 14.6035 6.02242 14.722C5.95665 14.8404 5.92206 14.9737 5.92188 15.1092V28.5332C5.92187 28.6382 5.94257 28.7423 5.98277 28.8393C6.02298 28.9364 6.0819 29.0246 6.15619 29.0989C6.23048 29.1731 6.31867 29.2321 6.41573 29.2723C6.51279 29.3125 6.61682 29.3332 6.72187 29.3332H16.5885M16.5885 7.99984L26.8792 14.4318C26.9941 14.5037 27.0889 14.6035 27.1547 14.722C27.2204 14.8404 27.255 14.9737 27.2552 15.1092V28.5332C27.2552 28.6382 27.2345 28.7423 27.1943 28.8393C27.1541 28.9364 27.0952 29.0246 27.0209 29.0989C26.9466 29.1731 26.8584 29.2321 26.7614 29.2723C26.6643 29.3125 26.5603 29.3332 26.4552 29.3332H16.5885M16.5885 7.99984V5.33317M16.5885 29.3332V22.6665M16.5885 5.33317V2.6665M16.5885 5.33317H13.9219M16.5885 5.33317H19.2552M21.9219 22.6798L21.9352 22.6652M21.9219 17.3465L21.9352 17.3318M16.5885 17.3465L16.6019 17.3318M11.2552 17.3465L11.2685 17.3318M11.2552 22.6798L11.2685 22.6652" stroke="white" stroke-linecap="round" stroke-linejoin="round"/>
</svg>
