<svg width="16" height="17" viewBox="0 0 16 17" fill="none" xmlns="http://www.w3.org/2000/svg">
<path d="M9.917 12.397C10.3053 12.0148 10.0958 11.1368 9.4615 10.1225C9.692 10.0865 9.9075 10.0315 10.0705 9.94725C10.657 9.6445 11.053 9.09275 11.3528 8.522C11.675 7.90975 11.8913 7.23675 12.3118 6.67925C12.3828 6.585 12.4538 6.5005 12.5245 6.421C13.4318 6.52975 14.156 6.72475 14.156 6.72475L14.4328 6.0215C14.0834 5.89614 13.7253 5.79695 13.3613 5.72475C13.5843 5.598 13.7298 5.5585 13.7298 5.5585L13.4675 4.8495C13.047 5.02725 12.7058 5.2895 12.42 5.6035C11.352 5.54375 10.2765 5.7565 9.428 6.4145C8.79 6.9095 8.359 7.59575 7.9535 8.28225C7.59422 7.92967 7.2116 7.60168 6.80825 7.3005C6.88475 7.17475 6.96675 7.06175 7.055 6.9745C7.58825 6.4495 8.29175 6.11375 8.75325 5.513C9.72325 4.2515 9.01375 2.274 8.21575 1.25C8.07275 1.38775 7.83625 1.5885 7.65825 1.747C8.5065 2.61575 9.09975 4.13675 8.435 5.27325C8.0635 5.9085 7.377 6.307 6.897 6.85275C6.814 6.9475 6.73975 7.0675 6.6725 7.2C5.41725 6.29975 4.26525 5.9375 3.80875 6.387C3.76342 6.43337 3.72608 6.48693 3.69825 6.5455L3.6965 6.54375L3.68425 6.5795C3.66725 6.61825 3.65175 6.6585 3.64125 6.7025L0.5 15.75L9.6655 12.5455L9.663 12.543C9.7615 12.5113 9.84825 12.4645 9.917 12.397ZM2.32325 14.583L1.55825 14.2265L2.0745 12.739L4.44225 13.842L2.32325 14.583ZM6.561 13.1012L2.59125 11.2515L3.1075 9.76425L6.074 11.2533C4.30325 10.1008 3.62375 8.2765 3.62375 8.2765L3.80025 7.76825C4.114 8.562 4.80425 9.5505 5.75275 10.4835C6.70925 11.425 7.723 12.107 8.53325 12.4117L6.561 13.1012ZM8.08575 8.41625C8.50025 7.822 8.9275 7.22225 9.5215 6.7955C10.087 6.389 11.005 6.31475 11.8753 6.3635C11.5813 6.877 11.364 7.44675 11.169 7.994C10.9333 8.6565 10.6173 9.3435 10.0148 9.74975C9.85225 9.85925 9.6245 9.93925 9.38125 9.9985C9.047 9.48625 8.6085 8.94475 8.08575 8.41625Z" fill="black"/>
<path d="M5.75823 6.00001C6.00873 6.00001 5.25773 5.25001 5.38323 4.59226C5.86423 4.55526 6.96373 4.77201 6.32373 3.89301C7.04773 4.02051 7.42273 3.48001 6.73923 2.96776C6.96673 2.98376 7.32023 2.55476 7.06648 2.50051C6.25348 2.32826 5.93523 2.76801 6.45123 3.40226C5.90873 3.30126 5.46648 3.55351 5.87398 4.12001C4.30748 3.92476 5.19873 6.00001 5.75823 6.00001Z" fill="black"/>
<path d="M11.1365 5.3334C11.3712 5.2274 10.973 4.52715 10.8435 4.34815C11.8342 4.24215 11.7967 3.9469 11.1755 3.3144C12.8645 3.37115 11.2277 2.41115 11.4572 2.03115C11.656 1.70165 12.2657 2.04715 12.2092 1.86365C12.0187 1.2499 10.2117 1.6649 11.3552 2.8109C10.3572 2.8304 10.2615 3.15665 11.0052 3.8329C9.70973 3.84715 10.7667 5.4999 11.1365 5.3334Z" fill="black"/>
<path d="M15.4249 7.80647C15.0294 7.91722 14.9684 7.87572 15.0211 8.26947C14.1076 7.84897 13.1411 7.26422 13.7276 8.81347C12.6901 8.19572 12.7419 8.73672 12.5479 9.62697C12.2954 9.43022 11.9366 8.91172 11.9366 8.91172L11.5566 9.23447C11.5566 9.23447 12.2529 10.2165 12.5966 10.1607C12.8989 10.112 13.0634 9.54072 13.0801 9.03722C14.0426 9.44347 14.5034 9.49772 14.0631 8.30972C14.8326 8.74197 15.7761 9.12322 15.4249 7.80647Z" fill="black"/>
<path d="M1.51194 3.35938L2.21894 4.06662L1.51194 4.77362L0.804688 4.06662L1.51194 3.35938Z" fill="black"/>
<path d="M3.20577 6.29955L2.49827 7.00655L1.79102 6.29905L2.49852 5.5918L3.20577 6.29955Z" fill="black"/>
<path d="M4.30491 2.25L5.01191 2.957L4.30466 3.6645L3.59766 2.957L4.30491 2.25Z" fill="black"/>
<path d="M12.0024 12.1208L11.2949 11.4136L12.0019 10.7061L12.7094 11.4133L12.0024 12.1208Z" fill="black"/>
<path d="M10.4258 14.5466L9.71875 13.8396L10.4258 13.1323L11.133 13.8396L10.4258 14.5466Z" fill="black"/>
<path d="M13.5278 15.1052L12.8203 14.3979L13.5271 13.6904L14.2346 14.3977L13.5278 15.1052Z" fill="black"/>
<path d="M14.2343 11.884L13.5273 11.1767L14.2343 10.4697L14.9413 11.1767L14.2343 11.884Z" fill="black"/>
<path d="M13.0549 3L13.7619 3.707L13.0547 4.41425L12.3477 3.707L13.0549 3Z" fill="black"/>
</svg>
