<svg width="16" height="17" viewBox="0 0 16 17" fill="none" xmlns="http://www.w3.org/2000/svg">
<g clip-path="url(#clip0_228_421)">
<path d="M5.43787 4.87797C5.70287 5.52128 6.43918 5.82797 7.08256 5.56297C7.47956 5.39941 7.74774 5.05622 7.83312 4.66628L8.85655 4.95735L8.99712 4.54435L7.94799 3.84341L8.04968 2.98872C8.06874 2.82828 7.96849 2.67778 7.81312 2.6336L6.47718 2.25366C6.32181 2.20947 6.15731 2.28472 6.08912 2.43116L5.73487 3.1921L4.50774 3.2676L4.36718 3.68053L5.41618 3.97891C5.31637 4.26116 5.31487 4.57935 5.43787 4.87797ZM7.96993 8.71653H6.45274L5.66574 5.87441C5.55193 5.37247 5.10374 4.99003 4.57787 4.99003H1.80087C1.60931 4.99003 1.41781 5.09178 1.31031 5.25935L0.20918 7.18422C0.04168 7.45291 0.149118 7.79041 0.412743 7.95541C0.65293 8.10522 1.00887 8.0136 1.18331 7.76385L2.12331 6.13166H3.57974L1.78699 9.22316C1.57787 9.58385 1.55806 10.0239 1.73399 10.4019L2.63149 12.3304L1.84006 15.359C1.72943 15.7964 1.98987 16.2351 2.41593 16.3495C2.85337 16.4602 3.29143 16.1997 3.40649 15.7737L4.24406 12.4593C4.28893 12.2893 4.28324 12.0877 4.19349 11.917L4.11699 11.7552L5.19224 12.3747L4.13149 15.2648C3.97724 15.6839 4.17574 16.1624 4.59231 16.3211C5.01518 16.4823 5.48112 16.2699 5.63724 15.8463L6.93374 12.3032C7.09431 11.8652 6.91543 11.3765 6.51087 11.1452L4.21937 9.83728L5.11574 8.27147L5.44287 9.42722C5.51687 9.68035 5.74899 9.85435 6.01268 9.85435H7.96981C8.28637 9.86578 8.52368 9.62622 8.53555 9.31585C8.54643 9.03247 8.27324 8.74428 7.96993 8.71653ZM11.8881 4.26772C12.9395 3.86853 13.5091 2.76497 13.2716 1.69985C13.2685 1.7546 13.2439 1.79966 13.2213 1.84991C13.0792 2.16591 12.6992 2.31016 12.3832 2.16803C12.333 2.14541 12.2859 2.11566 12.2461 2.0891C11.8996 1.80378 11.4091 1.7041 10.9719 1.8701C10.316 2.1191 9.97099 2.85747 10.2259 3.52897C10.4809 4.20041 11.2166 4.5226 11.8881 4.26772ZM15.8716 13.2693C15.8716 13.2693 15.6187 9.22222 14.0068 7.76828C13.9962 7.75872 13.9857 7.74985 13.9752 7.7406V4.84297L15.3136 4.25878C15.655 4.10966 15.838 3.72628 15.7392 3.36697L15.0937 1.01997C15.0151 0.733846 14.7194 0.565721 14.4332 0.644346C14.1471 0.723034 13.9789 1.01878 14.0576 1.30491L14.6296 3.38472L13.4426 3.90285L11.0566 4.96235C10.5909 5.16922 10.2717 5.61285 10.2238 6.12016L10.1052 7.37403L8.71112 6.5751C8.45362 6.42753 8.12531 6.5166 7.97774 6.7741C7.83018 7.0316 7.91931 7.35991 8.17674 7.50747L10.0526 8.58247C10.1633 8.64597 10.2861 8.67785 10.409 8.67785C10.5218 8.67785 10.6347 8.65103 10.7387 8.59722C10.9561 8.48466 11.0996 8.27197 11.1228 8.0281L11.2351 6.84016L11.7943 8.14766C11.7943 8.14766 11.9152 9.00503 10.372 10.1073C8.60199 11.3715 9.20255 13.9949 9.20255 13.9949C9.20255 13.9949 9.73005 13.8111 10.4984 13.706V15.67C10.4989 16.0508 10.8215 16.3604 11.1938 16.3654C11.5746 16.3649 11.8837 16.0425 11.8892 15.67V13.6453C12.1482 13.6601 12.4137 13.6912 12.6802 13.7443L12.664 13.7517L13.1895 15.8357C13.2831 16.2048 13.6716 16.4261 14.0337 16.3399C14.4029 16.2463 14.6237 15.8582 14.538 15.4957L14.1514 13.9625C15.6854 14.012 15.8716 13.2693 15.8716 13.2693Z" fill="black"/>
</g>
<defs>
<clipPath id="clip0_228_421">
<rect width="16" height="16" fill="white" transform="translate(0 0.5)"/>
</clipPath>
</defs>
</svg>
