<svg width="16" height="17" viewBox="0 0 16 17" fill="none" xmlns="http://www.w3.org/2000/svg">
<path d="M4.33268 6.49984C5.25316 6.49984 5.99935 5.75364 5.99935 4.83317C5.99935 3.9127 5.25316 3.1665 4.33268 3.1665C3.41221 3.1665 2.66602 3.9127 2.66602 4.83317C2.66602 5.75364 3.41221 6.49984 4.33268 6.49984Z" stroke="black" stroke-width="2" stroke-linecap="round" stroke-linejoin="round"/>
<path d="M4.33268 13.8333C5.25316 13.8333 5.99935 13.0871 5.99935 12.1667C5.99935 11.2462 5.25316 10.5 4.33268 10.5C3.41221 10.5 2.66602 11.2462 2.66602 12.1667C2.66602 13.0871 3.41221 13.8333 4.33268 13.8333Z" stroke="black" stroke-width="2" stroke-linecap="round" stroke-linejoin="round"/>
<path d="M4 10.4998L13.3333 4.67822" stroke="black" stroke-width="2" stroke-linecap="round" stroke-linejoin="round"/>
<path fill-rule="evenodd" clip-rule="evenodd" d="M8.46632 8.49942L4.35356 5.93411C4.04116 5.73926 3.62994 5.83454 3.43509 6.14694C3.24023 6.45935 3.33552 6.87056 3.64792 7.06542L7.20665 9.28516L8.46632 8.49942ZM9.72605 9.28516L8.46632 10.0708L12.9813 12.887C13.2937 13.0818 13.7049 12.9866 13.8997 12.6742C14.0946 12.3618 13.9993 11.9506 13.6869 11.7557L9.72605 9.28516Z" fill="black"/>
</svg>
