<svg width="28" height="30" viewBox="0 0 28 30" fill="none" xmlns="http://www.w3.org/2000/svg">
<path fill-rule="evenodd" clip-rule="evenodd" d="M13.9993 0.666504C8.29246 0.666504 3.66607 5.29289 3.66607 10.9998V11.9386C3.66607 12.8678 3.39102 13.7764 2.87558 14.5494L1.3441 16.8466C-0.433358 19.5129 0.923588 23.1369 4.01504 23.98C5.02252 24.2548 6.03851 24.4872 7.06039 24.6773L7.06292 24.6841C8.08824 27.42 10.8287 29.3332 13.9993 29.3332C17.17 29.3332 19.9104 27.42 20.9357 24.6841L20.9383 24.6773C21.9601 24.4872 22.9763 24.2548 23.9837 23.98C27.0752 23.1369 28.4321 19.5129 26.6547 16.8466L25.1232 14.5494C24.6077 13.7764 24.3327 12.8678 24.3327 11.9386V10.9998C24.3327 5.29289 19.7063 0.666504 13.9993 0.666504ZM18.5012 25.0492C15.5107 25.4065 12.4879 25.4064 9.49734 25.049C10.4453 26.4112 12.094 27.3332 13.9993 27.3332C15.9045 27.3332 17.5533 26.4112 18.5012 25.0492ZM5.66607 10.9998C5.66607 6.39746 9.39703 2.6665 13.9993 2.6665C18.6017 2.6665 22.3327 6.39746 22.3327 10.9998V11.9386C22.3327 13.2628 22.7247 14.5572 23.4591 15.6589L24.9905 17.9561C26.0108 19.4864 25.232 21.5665 23.4575 22.0505C17.2652 23.7393 10.7336 23.7393 4.54127 22.0505C2.76683 21.5665 1.98798 19.4864 3.0082 17.9561L4.53967 15.6589C5.27414 14.5572 5.66607 13.2628 5.66607 11.9386V10.9998Z" fill="black"/>
</svg>
